<svg width="68" height="105" viewBox="0 0 68 105" fill="none" xmlns="http://www.w3.org/2000/svg">
<path d="M64.2545 0L47.402 35.4923C47.1567 36.0167 46.5604 36.2747 45.9979 36.1055C44.5981 35.691 43.1772 35.3442 41.7478 35.0693C41.604 35.0397 41.4602 35.0144 41.3207 34.989C38.7029 34.5111 36.0429 34.27 33.3702 34.27C32.3087 34.27 31.243 34.3081 30.1857 34.3842C30.025 34.3969 29.8643 34.4053 29.7036 34.4223C27.9359 34.5661 26.1766 34.8156 24.4428 35.1751C23.948 35.2724 23.5504 34.7606 23.7661 34.3081L40.0097 0H64.2545Z" fill="#F41943"/>
<path d="M36.6429 19.7677L33.6445 13.4406L35.8774 8.72498L38.9012 14.997L36.6429 19.7677Z" fill="#BA0F38"/>
<path d="M42.5845 32.3246L36.8711 20.2626V20.2584L39.1336 15.4835L44.9019 27.444L42.5845 32.3246Z" fill="#BA0F38"/>
<path d="M48.0865 34.0501L47.4014 35.4923C47.1562 36.0167 46.5599 36.2747 45.9974 36.1055C44.5934 35.6868 43.1767 35.34 41.7473 35.0694C41.6035 35.0398 41.4639 35.0101 41.3202 34.989V34.9848C38.7912 34.5238 36.2284 34.2869 33.6445 34.2742C33.7376 34.27 33.8264 34.27 33.9194 34.27C36.4103 34.27 38.9054 34.4772 41.3624 34.9002C41.5062 34.9213 41.65 34.9467 41.7938 34.9721C42.1448 35.0355 42.4958 35.1032 42.8468 35.1751C43.3416 35.2724 43.7391 34.7606 43.5234 34.3081L42.8172 32.8151L45.1389 27.9303L48.0865 34.0501Z" fill="#BA0F38"/>
<path d="M39.1335 15.4834L36.8709 20.2583L36.6426 19.7719V19.7677L38.9009 14.9971L39.1335 15.4834Z" fill="#CE9117"/>
<path d="M46.467 0L39.134 15.4835L38.9014 14.9971L46.0018 0H46.467Z" fill="#F9B906"/>
<path d="M45.1393 27.9302L42.8176 32.8151L42.585 32.3245L44.9024 27.4438L45.1393 27.9302Z" fill="#CE9117"/>
<path d="M58.4013 0L45.1392 27.9303L44.9023 27.4439L57.9361 0H58.4013Z" fill="#F9B906"/>
<path d="M49.7242 35.9622V43.6997H48.0466V36.1808C47.1602 35.8175 46.2544 35.4847 45.3345 35.1882C44.3589 34.8723 43.3664 34.5953 42.3594 34.3576C39.5607 33.7004 36.6418 33.354 33.6443 33.354C30.6443 33.354 27.7254 33.7008 24.9292 34.3605C23.9198 34.5953 22.9302 34.8723 21.9541 35.1882C21.0343 35.4847 20.1285 35.8175 19.2421 36.1808V43.6997H17.5645V35.9592C17.5645 35.4166 17.8935 34.9294 18.398 34.7289C19.3503 34.3504 20.7451 33.8175 21.2272 33.6589C22.7259 33.1666 24.2636 32.7585 25.8351 32.4481C28.3598 31.9418 30.9712 31.6762 33.6443 31.6762C36.3175 31.6762 38.9289 31.9418 41.4536 32.4451C43.0251 32.7581 44.5627 33.1666 46.0585 33.6614C46.5406 33.82 47.9375 34.3529 48.8903 34.7315C49.3948 34.9319 49.7242 35.4191 49.7242 35.9622Z" fill="#BA6017"/>
<path d="M33.645 105C52.2266 105 67.29 89.9356 67.29 71.3526C67.29 52.7696 52.2266 37.7051 33.645 37.7051C15.0634 37.7051 0 52.7696 0 71.3526C0 89.9356 15.0634 105 33.645 105Z" fill="#E37F22"/>
<path d="M33.6452 102.008C50.5744 102.008 64.2982 88.283 64.2982 71.3526C64.2982 54.4222 50.5744 40.6974 33.6452 40.6974C16.716 40.6974 2.99219 54.4222 2.99219 71.3526C2.99219 88.283 16.716 102.008 33.6452 102.008Z" fill="#BA6017"/>
<path d="M62.4225 71.3522C62.4225 87.2218 49.5143 100.133 33.6459 100.133C29.1454 100.133 24.8834 99.0955 21.0879 97.2456C17.1266 95.3166 13.6724 92.5063 10.9806 89.0691C9.75168 87.5009 8.68216 85.8016 7.79492 83.9948C5.9219 80.1774 4.86719 75.8851 4.86719 71.3522C4.86719 67.9899 5.44699 64.7633 6.51058 61.7622C9.71362 52.7221 17.3135 45.7467 26.7247 43.4155C28.9416 42.8657 31.2616 42.5735 33.6459 42.5735C38.9541 42.5735 43.9291 44.0174 48.2017 46.533C50.1073 47.6567 51.8728 48.9906 53.4667 50.5072C56.4719 53.3667 58.8608 56.8664 60.4116 60.787C61.7091 64.0583 62.4225 67.6228 62.4225 71.3522Z" fill="#E37F22"/>
<path d="M48.2017 46.5325L7.79492 83.9948C5.9219 80.1774 4.86719 75.8851 4.86719 71.3522C4.86719 67.9899 5.44699 64.7633 6.51058 61.7622L26.7247 43.4155C28.9416 42.8657 31.2616 42.5735 33.6459 42.5735C38.9537 42.5731 43.9287 44.0169 48.2017 46.5325Z" fill="#F79A4D"/>
<path d="M60.4119 60.7865L21.0878 97.2456C17.1265 95.3166 13.6722 92.5063 10.9805 89.0691L53.4666 50.5068C56.4721 53.3662 58.8611 56.8659 60.4119 60.7865Z" fill="#F79A4D"/>
<path d="M42.8469 35.1751C41.113 34.8156 39.3537 34.5661 37.586 34.4223C37.4253 34.4053 37.2646 34.3969 37.1039 34.3842C36.0467 34.3081 34.9809 34.27 33.9195 34.27C31.2467 34.27 28.5867 34.5111 25.969 34.989C25.8294 35.0144 25.6856 35.0397 25.5418 35.0693C24.1124 35.3442 22.6915 35.691 21.2917 36.1055C20.7293 36.2747 20.133 36.0167 19.8877 35.4923L3.03516 0H27.28L43.5235 34.3081C43.7392 34.7606 43.3417 35.2724 42.8469 35.1751Z" fill="#F41943"/>
<path d="M37.586 34.4223C37.4253 34.4053 37.2646 34.3969 37.1039 34.3842L20.8223 0H21.2875L37.586 34.4223Z" fill="#F9B906"/>
<path d="M25.9686 34.989C25.829 35.0144 25.6852 35.0397 25.5415 35.0693L8.8877 0H9.35289L25.9686 34.989Z" fill="#F9B906"/>
<path d="M24.4688 90.3672V81.4375H25.6641L28.1953 88.3984C29.7266 89.0703 31.1875 89.4062 32.5781 89.4062C34.8281 89.4062 36.6016 88.8359 37.8984 87.6953C39.2109 86.5547 39.8672 84.7422 39.8672 82.2578C39.8672 80.0234 39.2109 78.2109 37.8984 76.8203C36.5859 75.4297 34.9219 74.7344 32.9062 74.7344H30.4688V71.5234H32.8594C34.0156 71.5234 35.0234 71.1562 35.8828 70.4219C36.7578 69.6875 37.3906 68.8047 37.7812 67.7734C38.1875 66.7422 38.3906 65.6719 38.3906 64.5625C38.3906 60.2969 36.2578 58.1641 31.9922 58.1641C30.9766 58.1641 29.8281 58.2969 28.5469 58.5625L26.0391 65.5234H24.6094V56.875C27.125 55.9375 29.7344 55.4688 32.4375 55.4688C33.5625 55.4688 34.6172 55.5547 35.6016 55.7266C36.5859 55.8984 37.5391 56.1953 38.4609 56.6172C39.3828 57.0391 40.1719 57.5781 40.8281 58.2344C41.4844 58.875 42.0078 59.7109 42.3984 60.7422C42.7891 61.7578 42.9844 62.9141 42.9844 64.2109C42.9844 65.9141 42.4531 67.5703 41.3906 69.1797C40.3281 70.7734 38.8906 71.9531 37.0781 72.7188V72.9062C38.3125 73.3125 39.3516 73.75 40.1953 74.2188C41.0391 74.6875 41.8047 75.2812 42.4922 76C43.1797 76.7188 43.6875 77.5938 44.0156 78.625C44.3594 79.6562 44.5312 80.8672 44.5312 82.2578C44.5312 84.3672 43.9844 86.1641 42.8906 87.6484C41.8125 89.1172 40.3594 90.2031 38.5312 90.9062C36.7188 91.6094 34.6172 91.9609 32.2266 91.9609C29.5547 91.9609 26.9688 91.4297 24.4688 90.3672Z" fill="black"/>
</svg>
