<svg width="68" height="105" viewBox="0 0 68 105" fill="none" xmlns="http://www.w3.org/2000/svg">
<path d="M64.2545 0L47.402 35.4923C47.1567 36.0167 46.5604 36.2747 45.9979 36.1055C44.5981 35.6911 43.1772 35.3443 41.7478 35.0694C41.604 35.0398 41.4602 35.0144 41.3207 34.989C38.7029 34.5111 36.0429 34.27 33.3702 34.27C32.3087 34.27 31.243 34.3081 30.1857 34.3842C30.025 34.3969 29.8643 34.4054 29.7036 34.4223C27.9359 34.5661 26.1766 34.8156 24.4428 35.1751C23.948 35.2724 23.5504 34.7606 23.7661 34.3081L40.0097 0H64.2545Z" fill="#F41943"/>
<path d="M36.6429 19.7677L33.6445 13.4407L35.8774 8.72501L38.9012 14.9971L36.6429 19.7677Z" fill="#BA0F38"/>
<path d="M42.5845 32.3246L36.8711 20.2626V20.2584L39.1336 15.4835L44.9019 27.444L42.5845 32.3246Z" fill="#BA0F38"/>
<path d="M48.0865 34.0501L47.4014 35.4923C47.1562 36.0168 46.5599 36.2747 45.9974 36.1056C44.5934 35.6869 43.1767 35.3401 41.7473 35.0694C41.6035 35.0398 41.4639 35.0102 41.3201 34.989V34.9848C38.7912 34.5238 36.2284 34.287 33.6445 34.2743C33.7376 34.2701 33.8264 34.2701 33.9194 34.2701C36.4103 34.2701 38.9054 34.4773 41.3624 34.9002C41.5062 34.9214 41.65 34.9467 41.7938 34.9721C42.1448 35.0356 42.4958 35.1032 42.8468 35.1751C43.3416 35.2724 43.7391 34.7606 43.5235 34.3081L42.8172 32.8152L45.1389 27.9303L48.0865 34.0501Z" fill="#BA0F38"/>
<path d="M39.1344 15.4834L36.8719 20.2583L36.6436 19.772V19.7677L38.9018 14.9971L39.1344 15.4834Z" fill="#CE9117"/>
<path d="M46.467 0L39.134 15.4835L38.9014 14.9971L46.0018 0H46.467Z" fill="#F9B906"/>
<path d="M45.1393 27.9302L42.8176 32.8151L42.585 32.3245L44.9024 27.4439L45.1393 27.9302Z" fill="#CE9117"/>
<path d="M58.4013 0L45.1392 27.9303L44.9023 27.4439L57.9361 0H58.4013Z" fill="#F9B906"/>
<path d="M49.7242 35.9622V43.6997H48.0466V36.1808C47.1602 35.8175 46.2543 35.4847 45.3345 35.1882C44.3589 34.8723 43.3664 34.5952 42.3594 34.3576C39.5607 33.7003 36.6419 33.3539 33.6443 33.3539C30.6443 33.3539 27.7254 33.7007 24.9292 34.3605C23.9198 34.5952 22.9302 34.8723 21.9541 35.1882C21.0343 35.4847 20.1285 35.8175 19.2421 36.1808V43.6997H17.5645V35.9592C17.5645 35.4166 17.8935 34.9294 18.398 34.7289C19.3504 34.3504 20.7451 33.8175 21.2272 33.6589C22.7259 33.1666 24.2636 32.7585 25.8351 32.448C28.3598 31.9418 30.9712 31.6762 33.6443 31.6762C36.3175 31.6762 38.9289 31.9418 41.4536 32.4451C43.0251 32.758 44.5628 33.1666 46.0585 33.6614C46.5407 33.82 47.9375 34.3529 48.8903 34.7314C49.3948 34.9319 49.7242 35.4191 49.7242 35.9622Z" fill="#E8A615"/>
<path d="M33.645 105C52.2266 105 67.29 89.9356 67.29 71.3526C67.29 52.7696 52.2266 37.7051 33.645 37.7051C15.0634 37.7051 0 52.7696 0 71.3526C0 89.9356 15.0634 105 33.645 105Z" fill="#F9B906"/>
<path d="M33.6452 102.008C50.5744 102.008 64.2982 88.2831 64.2982 71.3526C64.2982 54.4222 50.5744 40.6974 33.6452 40.6974C16.716 40.6974 2.99219 54.4222 2.99219 71.3526C2.99219 88.2831 16.716 102.008 33.6452 102.008Z" fill="#E8A615"/>
<path d="M62.4225 71.3522C62.4225 87.2218 49.5143 100.133 33.6459 100.133C29.1454 100.133 24.8834 99.0955 21.0879 97.2456C17.1266 95.3166 13.6724 92.5063 10.9806 89.0691C9.75167 87.5009 8.68216 85.8016 7.79492 83.9948C5.9219 80.1774 4.86719 75.8851 4.86719 71.3522C4.86719 67.9899 5.44698 64.7633 6.51057 61.7622C9.71361 52.7221 17.3135 45.7467 26.7247 43.4155C28.9416 42.8657 31.2616 42.5735 33.6459 42.5735C38.9541 42.5735 43.9291 44.0173 48.2017 46.5329C50.1072 47.6567 51.8728 48.9906 53.4667 50.5072C56.4719 53.3666 58.8608 56.8664 60.4116 60.7869C61.709 64.0583 62.4225 67.6228 62.4225 71.3522Z" fill="#F9B906"/>
<path d="M48.2017 46.5325L7.79492 83.9948C5.9219 80.1774 4.86719 75.8851 4.86719 71.3522C4.86719 67.9899 5.44698 64.7633 6.51057 61.7622L26.7247 43.4155C28.9416 42.8657 31.2616 42.5735 33.6459 42.5735C38.9537 42.573 43.9287 44.0169 48.2017 46.5325Z" fill="#FFC943"/>
<path d="M60.4119 60.7866L21.0878 97.2457C17.1265 95.3167 13.6722 92.5063 10.9805 89.0692L53.4666 50.5068C56.4721 53.3663 58.8611 56.866 60.4119 60.7866Z" fill="#FFC943"/>
<path d="M42.8469 35.1751C41.113 34.8156 39.3537 34.5661 37.586 34.4223C37.4253 34.4054 37.2646 34.3969 37.1039 34.3842C36.0467 34.3081 34.9809 34.27 33.9195 34.27C31.2467 34.27 28.5867 34.5111 25.969 34.989C25.8294 35.0144 25.6856 35.0398 25.5418 35.0694C24.1124 35.3443 22.6915 35.6911 21.2917 36.1055C20.7293 36.2747 20.133 36.0167 19.8877 35.4923L3.03516 0H27.28L43.5235 34.3081C43.7392 34.7606 43.3417 35.2724 42.8469 35.1751Z" fill="#F41943"/>
<path d="M37.586 34.4223C37.4253 34.4054 37.2646 34.3969 37.1039 34.3842L20.8223 0H21.2875L37.586 34.4223Z" fill="#F9B906"/>
<path d="M25.9686 34.989C25.829 35.0144 25.6852 35.0398 25.5415 35.0694L8.8877 0H9.35289L25.9686 34.989Z" fill="#F9B906"/>
<path d="M26.3906 62.3828L25.875 60.3203L35.5078 55.8672H37.3359V88.2109L42.1406 89.1719V91H26.6719V89.1719L32.9297 88.2109V60.8594L26.3906 62.3828Z" fill="black"/>
</svg>
