<svg width="77" height="58" viewBox="0 0 77 58" fill="none" xmlns="http://www.w3.org/2000/svg">
<path d="M57.3688 3.33012e-05L9.98047 28.1683L20.6491 55.7267L68.0374 27.5584L57.3688 3.33012e-05Z" fill="#76AA60"/>
<path d="M55.9027 4.96622L14.0244 29.8593L22.1153 50.7591L63.9936 25.8661L55.9027 4.96622Z" fill="#90C67B"/>
<path fill-rule="evenodd" clip-rule="evenodd" d="M19.272 26.7494C20.6616 30.3403 19.4394 34.6468 16.5422 36.3688L14.0254 29.868L19.272 26.7494Z" fill="#76AA60"/>
<path fill-rule="evenodd" clip-rule="evenodd" d="M50.6592 8.09302C52.0492 11.6839 55.5246 13.198 58.4222 11.476L55.9054 4.97522L50.6592 8.09302Z" fill="#76AA60"/>
<path fill-rule="evenodd" clip-rule="evenodd" d="M27.5697 48.1852C26.1797 44.5951 22.7042 43.0806 19.8066 44.8026L22.3234 51.3042L27.5697 48.1852Z" fill="#76AA60"/>
<path fill-rule="evenodd" clip-rule="evenodd" d="M58.9566 29.5293C57.5666 25.9385 58.7888 21.6323 61.6867 19.9099L64.2031 26.4107L58.9566 29.5293Z" fill="#76AA60"/>
<path fill-rule="evenodd" clip-rule="evenodd" d="M36.0474 20.2163C39.4594 18.1883 43.5525 19.9713 45.189 24.1991C46.8256 28.4278 45.3868 33.4988 41.9745 35.5268C38.5622 37.5547 34.4698 35.7714 32.8329 31.5435C31.196 27.3157 32.6355 22.2446 36.0474 20.2163Z" fill="#76AA60"/>
<path d="M16.8196 19.2395L13.6523 49.5519L65.7767 57.9145L68.944 27.6022L16.8196 19.2395Z" fill="#76AA60"/>
<path d="M19.4675 23.3883L17.0654 46.3768L63.1291 53.767L65.5311 30.7786L19.4675 23.3883Z" fill="#90C67B"/>
<path fill-rule="evenodd" clip-rule="evenodd" d="M25.2423 24.3089C24.8295 28.2582 21.9115 31.045 18.7246 30.5336L19.4716 23.3834L25.2423 24.3089Z" fill="#76AA60"/>
<path fill-rule="evenodd" clip-rule="evenodd" d="M59.7656 29.8474C59.3529 33.7963 61.6019 37.4122 64.7891 37.9237L65.536 30.773L59.7656 29.8474Z" fill="#76AA60"/>
<path fill-rule="evenodd" clip-rule="evenodd" d="M22.7785 47.8862C23.1913 43.9373 20.9419 40.3214 17.7548 39.8099L17.0078 46.9606L22.7785 47.8862Z" fill="#76AA60"/>
<path fill-rule="evenodd" clip-rule="evenodd" d="M57.3018 53.4247C57.7142 49.4758 60.6323 46.6886 63.8194 47.1996L63.0725 54.3506L57.3018 53.4247Z" fill="#76AA60"/>
<path fill-rule="evenodd" clip-rule="evenodd" d="M42.1827 30.1522C45.9354 30.754 48.5841 35.0121 48.0984 39.6626C47.6127 44.313 44.1763 47.5947 40.4233 46.9925C36.6703 46.3906 34.0219 42.1325 34.5076 37.4821C34.9933 32.832 38.4294 29.5503 42.1827 30.1522Z" fill="#76AA60"/>
<path d="M71.6635 10.9366L20.3486 25.024L25.6842 54.8657L76.9991 40.7782L71.6635 10.9366Z" fill="#76AA60"/>
<path d="M69.3245 15.3607L23.9766 27.8101L28.023 50.442L73.371 37.9926L69.3245 15.3607Z" fill="#90C67B"/>
<path fill-rule="evenodd" clip-rule="evenodd" d="M29.6557 26.259C30.3506 30.1469 28.3707 33.997 25.233 34.8584L23.9746 27.8187L29.6557 26.259Z" fill="#76AA60"/>
<path fill-rule="evenodd" clip-rule="evenodd" d="M63.6436 16.9298C64.3387 20.8174 67.4454 23.2712 70.5831 22.4098L69.3247 15.3701L63.6436 16.9298Z" fill="#76AA60"/>
<path fill-rule="evenodd" clip-rule="evenodd" d="M33.8057 49.4705C33.1106 45.5825 30.0039 43.1291 26.8662 43.9901L28.1246 51.0302L33.8057 49.4705Z" fill="#76AA60"/>
<path fill-rule="evenodd" clip-rule="evenodd" d="M67.7932 40.1413C67.0984 36.2533 69.078 32.4033 72.2156 31.5419L73.4743 38.5816L67.7932 40.1413Z" fill="#76AA60"/>
<path fill-rule="evenodd" clip-rule="evenodd" d="M47.1911 24.621C50.8861 23.6066 54.5446 26.4963 55.3629 31.0741C56.1812 35.6523 53.8498 40.1857 50.1548 41.2001C46.4601 42.2145 42.8015 39.3256 41.9829 34.7469C41.1646 30.1683 43.4964 25.6349 47.1911 24.621Z" fill="#76AA60"/>
<path fill-rule="evenodd" clip-rule="evenodd" d="M4.64654 16.2427H49.7849C52.3404 16.2427 54.4314 18.8338 54.4314 22.0004V51.6114C54.4314 54.7785 52.3404 57.3691 49.7849 57.3691H4.64654C2.09101 57.3691 0 54.7785 0 51.6114V22.0004C0.000325753 18.8338 2.09101 16.2427 4.64654 16.2427Z" fill="#873834"/>
<path fill-rule="evenodd" clip-rule="evenodd" d="M5.97446 19.7533H48.4572C50.1003 19.7533 51.4444 21.4192 51.4444 23.4548V50.1567C51.4444 52.1927 50.1003 53.8582 48.4572 53.8582H5.97446C4.33169 53.8582 2.9873 52.1927 2.9873 50.1567V23.4548C2.9873 21.4192 4.33169 19.7533 5.97446 19.7533Z" stroke="#C9928F" stroke-width="3.1201" stroke-miterlimit="22.9256" stroke-linecap="round" stroke-linejoin="round" stroke-dasharray="3.12 9.36"/>
<path fill-rule="evenodd" clip-rule="evenodd" d="M23.9794 14.5337H30.4528C31.1453 14.5337 31.7115 15.2352 31.7115 16.093V26.6045C31.7115 27.4622 31.1453 28.1638 30.4528 28.1638H23.9794C23.2869 28.1638 22.7207 27.4622 22.7207 26.6045V16.093C22.7207 15.2356 23.2869 14.5337 23.9794 14.5337Z" fill="#C9928F"/>
<path fill-rule="evenodd" clip-rule="evenodd" d="M27.2165 26.9157C28.4869 26.9157 29.5231 25.6317 29.5231 24.0574C29.5231 22.484 28.4869 21.1996 27.2165 21.1996C25.9464 21.1996 24.9102 22.484 24.9102 24.0574C24.9098 25.6321 25.9461 26.9157 27.2165 26.9157Z" fill="#873834"/>
</svg>
