<svg width="68" height="105" viewBox="0 0 68 105" fill="none" xmlns="http://www.w3.org/2000/svg">
<path d="M64.2594 0L47.4056 35.4923C47.1603 36.0167 46.564 36.2747 46.0015 36.1055C44.6016 35.6911 43.1806 35.3443 41.7511 35.0694C41.6073 35.0398 41.4635 35.0144 41.3239 34.989C38.706 34.5111 36.0457 34.27 33.3728 34.27C32.3113 34.27 31.2455 34.3081 30.1882 34.3842C30.0274 34.3969 29.8667 34.4054 29.706 34.4223C27.9382 34.5661 26.1788 34.8156 24.4448 35.1751C23.9499 35.2724 23.5524 34.7606 23.7681 34.3081L40.0128 0H64.2594Z" fill="#F41943"/>
<path d="M36.646 19.7677L33.6475 13.4406L35.8805 8.72498L38.9045 14.997L36.646 19.7677Z" fill="#BA0F38"/>
<path d="M42.5888 32.3246L36.875 20.2626V20.2584L39.1377 15.4835L44.9064 27.444L42.5888 32.3246Z" fill="#BA0F38"/>
<path d="M48.0905 34.0501L47.4054 35.4923C47.1601 36.0167 46.5637 36.2747 46.0012 36.1055C44.5971 35.6868 43.1803 35.34 41.7508 35.0694C41.607 35.0398 41.4674 35.0101 41.3236 34.989V34.9848C38.7945 34.5238 36.2316 34.2869 33.6475 34.2742C33.7405 34.27 33.8293 34.27 33.9224 34.27C36.4134 34.27 38.9087 34.4773 41.3659 34.9002C41.5097 34.9213 41.6535 34.9467 41.7973 34.9721C42.1484 35.0355 42.4994 35.1032 42.8504 35.1751C43.3453 35.2724 43.7428 34.7606 43.5271 34.3081L42.8208 32.8151L45.1427 27.9303L48.0905 34.0501Z" fill="#BA0F38"/>
<path d="M39.1375 15.4834L36.8749 20.2583L36.6465 19.772V19.7677L38.9049 14.9971L39.1375 15.4834Z" fill="#CE9117"/>
<path d="M46.4705 0L39.1369 15.4835L38.9043 14.9971L46.0053 0H46.4705Z" fill="#F9B906"/>
<path d="M45.1434 27.9302L42.8215 32.8151L42.5889 32.3245L44.9065 27.4438L45.1434 27.9302Z" fill="#CE9117"/>
<path d="M58.4062 0L45.1431 27.9303L44.9062 27.4439L57.941 0H58.4062Z" fill="#F9B906"/>
<path d="M49.7276 35.9622V43.6997H48.0498V36.1809C47.1633 35.8176 46.2574 35.4848 45.3375 35.1883C44.3618 34.8724 43.3692 34.5953 42.3622 34.3577C39.5633 33.7004 36.6442 33.354 33.6465 33.354C30.6462 33.354 27.7272 33.7008 24.9307 34.3606C23.9212 34.5953 22.9316 34.8724 21.9554 35.1883C21.0356 35.4848 20.1296 35.8176 19.2432 36.1809V43.6997H17.5654V35.9593C17.5654 35.4167 17.8945 34.9294 18.399 34.729C19.3515 34.3505 20.7463 33.8176 21.2284 33.659C22.7273 33.1667 24.2651 32.7586 25.8367 32.4481C28.3616 31.9419 30.9732 31.6763 33.6465 31.6763C36.3198 31.6763 38.9314 31.9419 41.4563 32.4452C43.0279 32.7581 44.5657 33.1667 46.0616 33.6615C46.5437 33.8201 47.9407 34.353 48.8935 34.7315C49.3981 34.932 49.7276 35.4192 49.7276 35.9622Z" fill="#C3DBDA"/>
<path d="M33.6475 105C52.2305 105 67.2949 89.9356 67.2949 71.3526C67.2949 52.7696 52.2305 37.7051 33.6475 37.7051C15.0645 37.7051 0 52.7696 0 71.3526C0 89.9356 15.0645 105 33.6475 105Z" fill="#EBF2F2"/>
<path d="M33.6474 102.008C50.5779 102.008 64.3027 88.2831 64.3027 71.3526C64.3027 54.4222 50.5779 40.6974 33.6474 40.6974C16.717 40.6974 2.99219 54.4222 2.99219 71.3526C2.99219 88.2831 16.717 102.008 33.6474 102.008Z" fill="#C3DBDA"/>
<path d="M62.4273 71.3522C62.4273 87.2218 49.5182 100.133 33.6486 100.133C29.1477 100.133 24.8854 99.0955 21.0897 97.2457C17.1281 95.3167 13.6736 92.5063 10.982 89.0692C9.75301 87.5009 8.68342 85.8016 7.79611 83.9948C5.92295 80.1775 4.86816 75.8852 4.86816 71.3522C4.86816 67.9899 5.448 64.7634 6.51167 61.7622C9.71494 52.7221 17.3154 45.7467 26.7273 43.4155C28.9443 42.8657 31.2645 42.5735 33.649 42.5735C38.9576 42.5735 43.9329 44.0174 48.2058 46.533C50.1115 47.6567 51.8773 48.9906 53.4713 50.5072C56.4766 53.3667 58.8658 56.8664 60.4166 60.787C61.7138 64.0583 62.4273 67.6228 62.4273 71.3522Z" fill="#EBF2F2"/>
<path d="M48.2048 46.5325L7.79513 83.9948C5.92197 80.1775 4.86719 75.8852 4.86719 71.3522C4.86719 67.9899 5.44703 64.7634 6.51069 61.7622L26.7263 43.4155C28.9433 42.8657 31.2635 42.5735 33.648 42.5735C38.9562 42.5731 43.9315 44.0169 48.2048 46.5325Z" fill="white"/>
<path d="M60.416 60.7866L21.0891 97.2457C17.1275 95.3167 13.673 92.5063 10.9814 89.0692L53.4707 50.5068C56.476 53.3663 58.8652 56.866 60.416 60.7866Z" fill="white"/>
<path d="M42.8508 35.1751C41.1168 34.8156 39.3574 34.5661 37.5895 34.4223C37.4288 34.4054 37.2681 34.3969 37.1074 34.3842C36.0501 34.3081 34.9843 34.27 33.9227 34.27C31.2498 34.27 28.5896 34.5111 25.9716 34.989C25.8321 35.0144 25.6883 35.0398 25.5445 35.0694C24.115 35.3443 22.6939 35.6911 21.294 36.1055C20.7315 36.2747 20.1352 36.0167 19.8899 35.4923L3.03613 0H27.2827L43.5275 34.3081C43.7431 34.7606 43.3456 35.2724 42.8508 35.1751Z" fill="#F41943"/>
<path d="M37.5892 34.4223C37.4285 34.4054 37.2677 34.3969 37.107 34.3842L20.8242 0H21.2894L37.5892 34.4223Z" fill="#F9B906"/>
<path d="M25.9718 34.989C25.8322 35.0144 25.6884 35.0398 25.5446 35.0694L8.88965 0H9.35487L25.9718 34.989Z" fill="#F9B906"/>
<path d="M44.3516 81.7891V91H22.0859V87.9297L31.6953 78.1797C35.9453 73.8672 38.0703 69.5 38.0703 65.0781C38.0703 62.8594 37.4531 61.1484 36.2188 59.9453C35 58.7266 33.2188 58.1172 30.875 58.1172C29.7031 58.1172 28.375 58.2812 26.8906 58.6094L24.3828 65.5703H22.9531V56.9219C25.4375 55.9531 28.25 55.4688 31.3906 55.4688C32.9844 55.4688 34.4531 55.625 35.7969 55.9375C37.1406 56.2344 38.375 56.7188 39.5 57.3906C40.625 58.0469 41.5078 58.9688 42.1484 60.1562C42.7891 61.3438 43.1094 62.7422 43.1094 64.3516C43.1094 65.3984 43.0703 66.2578 42.9922 66.9297C42.9297 67.6016 42.75 68.4062 42.4531 69.3438C42.1719 70.2812 41.7422 71.2031 41.1641 72.1094C40.6016 73 39.8125 74.0547 38.7969 75.2734C37.7969 76.4922 36.5469 77.8438 35.0469 79.3281L27.1719 87.2031H41.0938L42.6875 81.7891H44.3516Z" fill="black"/>
</svg>
