<svg width="48" height="60" viewBox="0 0 48 60" fill="none" xmlns="http://www.w3.org/2000/svg">
<path d="M13.0615 24.8393C12.9386 24.8029 9.99335 23.9007 5.15966 19.6488C0.164422 15.2548 0.0044102 7.99851 9.80473e-05 7.69185C-0.00344408 7.44258 0.0891128 7.20214 0.257441 7.02354C0.425615 6.84502 0.655776 6.74291 0.896949 6.74013L9.46835 6.63586L9.4896 8.51178L1.88636 8.60434C2.10181 10.5856 2.95931 15.2499 6.33611 18.2203C10.8226 22.1668 13.5377 23.0286 13.5646 23.0368L13.0615 24.8393Z" fill="#FCAB28"/>
<path d="M34.9381 24.8393L34.4395 23.0355C34.462 23.0285 37.1771 22.1667 41.6636 18.2202C45.0401 15.25 45.8977 10.5863 46.1134 8.60428L38.5101 8.51172L38.5314 6.6358L47.1028 6.74006C47.3439 6.74293 47.5741 6.84496 47.7423 7.02348C47.9105 7.20216 48.0032 7.44252 47.9996 7.69179C47.9953 7.99845 47.8352 15.2547 42.8401 19.6488C38.0063 23.9008 35.0612 24.8031 34.9381 24.8393Z" fill="#FCAB28"/>
<path d="M9.07588 6.74C9.07588 6.74 7.96666 6.32311 7.96666 5.17663C7.96666 4.03015 7.76499 3.509 8.77341 2.4667C9.78176 1.42441 17.412 0 23.5632 0C29.7144 0 38.1178 1.73711 39.1262 2.67515C40.1346 3.61319 39.7312 6.11459 39.5295 6.53156C39.3278 6.94845 38.5211 6.84426 38.5211 6.84426L9.07588 6.74Z" fill="#FFCF3F"/>
<path d="M23.496 3.50903C19.699 3.50903 11.6978 4.03018 8.77344 6.21896C8.77344 6.21896 8.77344 17.4755 11.7986 23.208C14.8238 28.9405 20.1684 33.6306 20.1684 33.6306H22.891H23.6977H27.4288C27.4288 33.6306 32.7733 28.9405 35.7985 23.208C38.8237 17.4755 38.8237 6.21896 38.8237 6.21896C35.5968 4.03018 27.293 3.50903 23.496 3.50903Z" fill="#FFD733"/>
<path d="M23.496 3.50903C19.699 3.50903 11.6978 4.03018 8.77344 6.21896C8.77344 6.21896 8.77344 17.4755 11.7986 23.208C13.2318 25.9238 15.1851 28.4045 16.8445 30.2646C18.0054 30.7739 19.34 31.0948 20.8743 31.1292C30.1515 31.3377 32.5717 23.208 33.5801 20.2896C35.1689 15.6916 36.073 8.47205 36.4281 5.12159C32.5298 3.84761 26.553 3.50903 23.496 3.50903Z" fill="#FFE266"/>
<path d="M34.1851 47.7012C33.2776 44.8871 31.3616 45.304 31.3616 45.304C31.3616 45.304 31.3584 44.3993 30.0172 44.2696C29.1863 44.0053 27.045 43.1553 26.3196 41.2391C25.4121 38.8419 25.8154 35.8194 25.8154 35.8194L23.7986 35.5475L21.7818 35.8194C21.7818 35.8194 22.1852 38.842 21.2776 41.2391C20.5522 43.1552 18.4109 44.0053 17.58 44.2696C16.2389 44.3993 16.2356 45.304 16.2356 45.304C16.2356 45.304 14.3197 44.8871 13.4121 47.7012H34.1851Z" fill="#FFCE45"/>
<path d="M16.2354 45.3041C17.4959 45.22 18.7563 45.1635 20.0169 45.1349C21.2773 45.1002 22.5378 45.0909 23.7983 45.0866C25.0589 45.0904 26.3193 45.0997 27.5798 45.1343C28.8404 45.1627 30.1008 45.2195 31.3614 45.3041C30.1008 45.3887 28.8404 45.4454 27.5798 45.4739C26.3193 45.5085 25.0589 45.5177 23.7983 45.5216C22.5378 45.5172 21.2773 45.508 20.0169 45.4733C18.7563 45.4445 17.4958 45.3881 16.2354 45.3041Z" fill="#FCAB28"/>
<path d="M27.4283 35.0898H20.2687C19.8231 35.0898 19.4619 34.7164 19.4619 34.2559C19.4619 33.7954 19.8231 33.4221 20.2687 33.4221H27.4283C27.8738 33.4221 28.2351 33.7954 28.2351 34.2559C28.2351 34.7164 27.8738 35.0898 27.4283 35.0898Z" fill="#FCAB28"/>
<path d="M27.0248 36.1423H20.6719C20.2765 36.1423 19.9561 35.8111 19.9561 35.4025C19.9561 34.9938 20.2765 34.6626 20.6719 34.6626H27.0248C27.4202 34.6626 27.7406 34.9938 27.7406 35.4025C27.7406 35.8111 27.4202 36.1423 27.0248 36.1423Z" fill="#FCAB28"/>
<path d="M13.1476 47.597H35.1539C35.8994 47.597 36.5036 48.2216 36.5036 48.992V58.605C36.5036 59.3755 35.8993 60 35.1539 60H13.1476C12.4021 60 11.7979 59.3754 11.7979 58.605V48.992C11.7979 48.2216 12.4022 47.597 13.1476 47.597Z" fill="#6C554F"/>
<path d="M16.8605 49.7441H31.442C31.7873 49.7441 32.0672 50.0334 32.0672 50.3903V55.6433C32.0672 56.0002 31.7873 56.2895 31.442 56.2895H16.8605C16.5153 56.2895 16.2354 56.0002 16.2354 55.6433V50.3903C16.2354 50.0335 16.5153 49.7441 16.8605 49.7441Z" fill="#FCAB28"/>
<path d="M18.8703 49.7441H23.8855C24.0043 49.7441 24.1006 50.0334 24.1006 50.3903V55.6433C24.1006 56.0002 24.0043 56.2895 23.8855 56.2895H18.8703C18.7515 56.2895 18.6553 56.0002 18.6553 55.6433V50.3903C18.6552 50.0335 18.7515 49.7441 18.8703 49.7441Z" fill="#FFD733"/>
<path d="M20.168 33.6307C20.7731 33.5858 21.3781 33.5648 21.9831 33.5473C22.5881 33.5274 23.1932 33.5246 23.7982 33.5219C24.4032 33.5244 25.0083 33.5273 25.6133 33.547L26.5208 33.5773C26.8234 33.5954 27.1259 33.606 27.4284 33.6307C27.1259 33.6553 26.8234 33.6659 26.5208 33.684L25.6133 33.7143C25.0083 33.734 24.4032 33.7369 23.7982 33.7394C23.1932 33.7367 22.5881 33.7339 21.9831 33.7139C21.378 33.6966 20.773 33.6756 20.168 33.6307Z" fill="#FFE266"/>
<path d="M20.2012 34.8813C20.8174 34.8364 21.4337 34.8154 22.0499 34.798C22.6662 34.7781 23.2824 34.7753 23.8987 34.7726C24.5149 34.7751 25.1312 34.7779 25.7474 34.7977L26.6719 34.8281C26.9799 34.8461 27.288 34.8567 27.5962 34.8814C27.288 34.9061 26.9799 34.9166 26.6719 34.9347L25.7474 34.965C25.1312 34.9848 24.5149 34.9876 23.8987 34.9901C23.2824 34.9874 22.6662 34.9845 22.0499 34.9646C21.4337 34.9471 20.8174 34.9261 20.2012 34.8813Z" fill="#FFE266"/>
<path d="M21.8516 36.271C22.5004 36.1855 23.1492 36.1658 23.7981 36.1623C24.4469 36.1653 25.0958 36.185 25.7446 36.271C25.0958 36.3571 24.4469 36.3767 23.7981 36.3798C23.1492 36.3763 22.5004 36.3566 21.8516 36.271Z" fill="#FFE266"/>
<path d="M13.8496 46.6937C15.5079 46.6096 17.1661 46.5531 18.8244 46.5245C20.4826 46.4898 22.1409 46.4805 23.7991 46.4762C25.4574 46.48 27.1156 46.4892 28.7739 46.5238C30.4321 46.5523 32.0904 46.6091 33.7486 46.6937C32.0903 46.7783 30.4321 46.835 28.7739 46.8635C27.1156 46.8981 25.4574 46.9074 23.7991 46.9112C22.1409 46.9069 20.4826 46.8976 18.8244 46.8629C17.166 46.8342 15.5078 46.7777 13.8496 46.6937Z" fill="#FCAB28"/>
<g opacity="0.48">
<path d="M18.3989 0.278351C16.7049 0.448672 15.0626 0.684892 13.6234 0.953823C13.4566 6.10069 13.4035 14.7012 14.6212 19.4557C16.4363 26.5432 19.6632 30.0869 19.6632 30.0869C19.6632 30.0869 17.6464 19.6643 17.848 10.4923C17.9446 6.10005 18.1799 2.6669 18.3989 0.278351Z" fill="#FFFFFD"/>
</g>
<path d="M38.8237 6.21889C37.7067 5.55806 36.4682 5.18009 35.2246 4.88625C33.9786 4.59137 32.7136 4.38523 31.4438 4.22454C30.1731 4.07086 28.8983 3.94916 27.6207 3.87069C26.3435 3.78847 25.0637 3.73459 23.7856 3.72894C22.508 3.71613 21.2282 3.76141 19.9507 3.83503C18.6725 3.90308 17.3974 4.02087 16.1269 4.17281C14.8575 4.33223 13.5914 4.53104 12.3466 4.82982C11.1052 5.12748 9.86534 5.51293 8.77344 6.21889C9.29629 5.83598 9.8611 5.50059 10.4642 5.26398C10.6136 5.20174 10.7617 5.13433 10.9128 5.07631L11.3707 4.91585C11.6747 4.80252 11.9848 4.71234 12.2955 4.62305C13.54 4.2719 14.8093 4.02573 16.0841 3.83607C18.6356 3.46128 21.2097 3.29088 23.788 3.29399C26.3649 3.32415 28.937 3.51031 31.4873 3.88923C32.7618 4.08009 34.0296 4.33342 35.2745 4.68059C35.5872 4.76113 35.8935 4.86723 36.2004 4.96894C36.5095 5.06301 36.8096 5.18709 37.1099 5.30775C37.4142 5.41758 37.7011 5.57302 37.9924 5.71413C38.14 5.78099 38.2771 5.86901 38.4135 5.95783L38.8237 6.21889Z" fill="#FCAB28"/>
<path d="M17.2194 8.49797L18.1611 6.7923L19.0425 8.53203L20.6929 9.50541L19.0096 10.4165L18.0679 12.1222L17.1865 10.3825L15.5361 9.40911L17.2194 8.49797Z" fill="white"/>
<g opacity="0.35">
<path d="M14.1934 60H17.9305L27.2639 47.597H22.9694L14.1934 60Z" fill="white"/>
</g>
<g opacity="0.35">
<path d="M23.4202 60L32.6774 47.597H30.9222L21.5693 60H23.4202Z" fill="white"/>
</g>
</svg>
