<svg width="40" height="40" viewBox="0 0 40 40" fill="none" xmlns="http://www.w3.org/2000/svg">
<circle cx="20.0015" cy="20" r="20" fill="white"/>
<g clip-path="url(#clip0_77_838)">
<path d="M38.001 20C38.001 10.0578 29.9432 2 20.001 2C10.0588 2 2.00098 10.0578 2.00098 20C2.00098 28.4375 7.81582 35.525 15.6557 37.4727V25.4984H11.9432V20H15.6557V17.6305C15.6557 11.5063 18.426 8.66563 24.4447 8.66563C25.5838 8.66563 27.5525 8.89062 28.3611 9.11562V14.0938C27.9393 14.0516 27.201 14.0234 26.2799 14.0234C23.3268 14.0234 22.1877 15.1414 22.1877 18.0453V20H28.0658L27.0533 25.4984H22.1807V37.8664C31.0963 36.7906 38.001 29.2039 38.001 20Z" fill="#001E1E"/>
</g>
<defs>
<clipPath id="clip0_77_838">
<rect width="36" height="36" fill="white" transform="translate(2.00098 2)"/>
</clipPath>
</defs>
</svg>
