<svg width="40" height="40" viewBox="0 0 40 40" fill="none" xmlns="http://www.w3.org/2000/svg">
<circle cx="20.0005" cy="20" r="20" fill="#FBFBFB"/>
<g clip-path="url(#clip0_77_846)">
<path d="M20.0076 12.8125C15.4648 12.8125 11.8005 16.0187 11.8005 19.9937C11.8005 23.9687 15.4648 27.1749 20.0076 27.1749C24.5505 27.1749 28.2148 23.9687 28.2148 19.9937C28.2148 16.0187 24.5505 12.8125 20.0076 12.8125ZM20.0076 24.6625C17.0719 24.6625 14.6719 22.5687 14.6719 19.9937C14.6719 17.4187 17.0648 15.325 20.0076 15.325C22.9505 15.325 25.3433 17.4187 25.3433 19.9937C25.3433 22.5687 22.9433 24.6625 20.0076 24.6625ZM30.4648 12.5187C30.4648 13.45 29.6076 14.1937 28.5505 14.1937C27.4862 14.1937 26.6362 13.4437 26.6362 12.5187C26.6362 11.5937 27.4933 10.8437 28.5505 10.8437C29.6076 10.8437 30.4648 11.5937 30.4648 12.5187ZM35.9005 14.2187C35.779 11.975 35.1933 9.98745 33.3148 8.34995C31.4433 6.71245 29.1719 6.19995 26.6076 6.08745C23.9648 5.9562 16.0433 5.9562 13.4005 6.08745C10.8433 6.1937 8.5719 6.7062 6.69333 8.3437C4.81476 9.9812 4.23619 11.9687 4.10762 14.2125C3.95762 16.525 3.95762 23.4562 4.10762 25.7687C4.22905 28.0124 4.81476 30 6.69333 31.6375C8.5719 33.275 10.8362 33.7875 13.4005 33.9C16.0433 34.0312 23.9648 34.0312 26.6076 33.9C29.1719 33.7937 31.4433 33.2812 33.3148 31.6375C35.1862 30 35.7719 28.0124 35.9005 25.7687C36.0505 23.4562 36.0505 16.5312 35.9005 14.2187ZM32.4862 28.25C31.929 29.475 30.8505 30.4187 29.4433 30.9125C27.3362 31.6437 22.3362 31.475 20.0076 31.475C17.679 31.475 12.6719 31.6375 10.5719 30.9125C9.1719 30.425 8.09333 29.4812 7.52905 28.25C6.69333 26.4062 6.88619 22.0312 6.88619 19.9937C6.88619 17.9562 6.70047 13.575 7.52905 11.7375C8.08619 10.5125 9.16476 9.5687 10.5719 9.07495C12.679 8.3437 17.679 8.51245 20.0076 8.51245C22.3362 8.51245 27.3433 8.34995 29.4433 9.07495C30.8433 9.56245 31.9219 10.5062 32.4862 11.7375C33.3219 13.5812 33.129 17.9562 33.129 19.9937C33.129 22.0312 33.3219 26.4125 32.4862 28.25Z" fill="#001E1E"/>
</g>
<defs>
<clipPath id="clip0_77_846">
<rect width="32" height="32" fill="white" transform="translate(4.00049 4)"/>
</clipPath>
</defs>
</svg>
