<svg width="40" height="40" viewBox="0 0 40 40" fill="none" xmlns="http://www.w3.org/2000/svg">
<circle cx="20.0005" cy="20" r="20" fill="#F5F5F5"/>
<g clip-path="url(#clip0_77_842)">
<path d="M20 2.5625C10.0565 2.5625 2 10.3672 2 20C2 29.6328 10.0565 37.4375 20 37.4375C29.9435 37.4375 38 29.6328 38 20C38 10.3672 29.9435 2.5625 20 2.5625ZM28.3468 14.4242C28.0782 17.1805 26.9024 23.8742 26.3073 26.9609C26.0532 28.2687 25.5597 28.7047 25.0806 28.7469C24.0355 28.8383 23.2444 28.0789 22.2282 27.432C20.646 26.4266 19.746 25.8008 18.2145 24.8164C16.4363 23.6844 17.5903 23.0586 18.5992 22.0391C18.8677 21.7719 23.4694 17.7148 23.5565 17.3492C23.571 17.3 23.5782 17.1312 23.4694 17.0398C23.3605 16.9484 23.2081 16.9836 23.0992 17.0047C22.9395 17.0375 20.4089 18.657 15.5073 21.8633C14.7911 22.3414 14.1403 22.5734 13.5548 22.5594C12.9089 22.5453 11.675 22.2078 10.7532 21.9195C9.62823 21.568 8.72823 21.3781 8.80806 20.7734C8.84677 20.4594 9.29435 20.1383 10.1508 19.8102C15.396 17.5977 18.8944 16.1375 20.646 15.4297C25.6468 13.4187 26.6847 13.0672 27.3597 13.0531C27.5121 13.0531 27.8387 13.0883 28.0564 13.257C28.1986 13.3781 28.2891 13.546 28.3105 13.7281C28.3497 13.9581 28.3619 14.1916 28.3468 14.4242Z" fill="#001E1E"/>
</g>
<defs>
<clipPath id="clip0_77_842">
<rect width="36" height="36" fill="white" transform="translate(2 2)"/>
</clipPath>
</defs>
</svg>
