<svg width="37" height="35" viewBox="0 0 37 35" fill="none" xmlns="http://www.w3.org/2000/svg">
<path d="M9.34451 19.5471L7.09113 18.424C6.71987 18.5885 6.27939 18.7881 5.79199 19.0139L8.19588 20.1971L9.34451 19.5471Z" fill="black"/>
<path d="M10.7482 18.7532C9.83582 18.4048 8.52004 17.9326 8.29099 17.9326C8.28804 17.9326 8.28518 17.9327 8.28254 17.9329C8.21737 17.9424 7.87152 18.0824 7.33887 18.3154L9.563 19.4239L10.7482 18.7532Z" fill="black"/>
<path d="M4.411 23.9757C4.12655 25.5674 3.85931 27.3273 3.87895 27.715C4.08335 27.6476 4.65022 27.3681 5.37049 26.9873L5.7952 23.1802L4.411 23.9757Z" fill="black"/>
<path d="M6.01862 23.051L5.59277 26.8684C6.06716 26.615 6.59447 26.3253 7.12242 26.0272L7.51034 22.1937L6.01862 23.051Z" fill="black"/>
<path d="M7.97706 20.3214L5.55002 19.1268C5.15711 19.3101 4.73851 19.5082 4.30472 19.717C4.25528 19.7408 4.20753 19.7639 4.15918 19.7873L6.64993 21.0725L7.97706 20.3214Z" fill="black"/>
<path d="M7.73283 22.0663L7.34473 25.9016C7.73467 25.6797 8.12058 25.4554 8.48142 25.2399L8.78122 21.4637L7.73283 22.0663Z" fill="black"/>
<path d="M4.72378 22.1629L2.05567 20.8431C1.00412 21.3985 0.53134 21.7095 0.459961 21.8207C0.548838 22.0299 1.89628 22.5043 3.46325 22.8763L4.72378 22.1629Z" fill="black"/>
<path d="M6.43307 21.1953L3.92474 19.901C3.2769 20.2161 2.73313 20.4895 2.2832 20.7237L4.94235 22.039L6.43307 21.1953Z" fill="black"/>
<path d="M9.0005 21.3376L8.70117 25.1077C9.01503 24.9179 9.30477 24.7373 9.55529 24.5737L10.0543 20.7319L9.0005 21.3376Z" fill="black"/>
<path d="M9.78516 24.4213C10.1607 24.1665 10.4113 23.9676 10.4621 23.864C10.6948 23.3892 11.2017 20.7702 11.3499 19.9878L10.2813 20.6019L9.78516 24.4213Z" fill="black"/>
<path d="M30.4583 7.94242C30.452 7.93939 30.446 7.93654 30.4403 7.93224C30.4057 7.91338 30.3751 7.90224 30.3541 7.89636L3.06077 23.3431C2.97399 23.6435 2.98833 23.862 3.10341 23.9928C3.27292 24.1854 3.62353 24.1517 3.70441 24.1408L30.7561 8.59375C30.7415 8.18902 30.5798 8.01585 30.4583 7.94242Z" fill="black"/>
<path d="M27.7977 3.73425C27.1609 3.86373 26.7811 4.10359 26.7282 4.40958C26.6685 4.75428 27.0204 5.19424 27.6696 5.58636C28.8708 6.31216 30.2074 7.525 30.3881 7.69073C30.415 7.69751 30.4537 7.70963 30.4999 7.73121L34.9153 5.10421L30.6839 7.85726C30.8282 7.99228 30.9647 8.22938 30.9661 8.64701C30.9661 8.64711 30.9662 8.64718 30.9662 8.64728C31.039 9.91343 30.8464 12.2731 30.6762 13.4075C30.6192 13.7871 30.7669 14.0901 31.0524 14.1795C31.459 14.307 32.0956 13.9735 32.6038 12.9427C33.6331 10.8545 36.3342 4.59196 36.1748 4.12364C35.9077 3.69142 29.4868 3.39055 27.7977 3.73425Z" fill="black"/>
<g opacity="0.25">
<path d="M6.65332 19.4374L8.19684 20.1972L8.80245 19.8544L7.31702 19.1575L6.65332 19.4374Z" fill="#2D0000"/>
</g>
<g opacity="0.25">
<path d="M5.04199 20.2431L6.65002 21.0729L7.37987 20.6598L5.69436 19.9393L5.04199 20.2431Z" fill="#2D0000"/>
</g>
<g opacity="0.25">
<path d="M8.15234 18.7199L9.56372 19.4233L10.1675 19.0817L8.58165 18.5375L8.15234 18.7199Z" fill="#2D0000"/>
</g>
<g opacity="0.25">
<path d="M1.34668 22.2666C1.89638 22.4633 2.64972 22.6838 3.46267 22.8768L4.23235 22.4412L2.33589 21.7493L1.34668 22.2666Z" fill="#2D0000"/>
</g>
<g opacity="0.25">
<path d="M3.14648 21.1509L4.94273 22.0394L5.77286 21.5696L3.99982 20.7662L3.14648 21.1509Z" fill="#2D0000"/>
</g>
<g opacity="0.25">
<path d="M4.30552 24.5784C4.06412 25.9866 3.86178 27.3759 3.87895 27.7151C4.0334 27.6641 4.3949 27.492 4.87299 27.2468L5.11576 24.1958L4.30552 24.5784Z" fill="#2D0000"/>
</g>
<g opacity="0.25">
<path d="M6.81592 23.3821C6.79936 23.3876 6.16277 23.6918 5.93528 23.8006L5.59766 26.8269L5.63799 26.8442C5.94592 26.6794 6.27492 26.4999 6.61148 26.3131C6.65728 25.7488 6.83376 23.3761 6.81592 23.3821Z" fill="#2D0000"/>
</g>
<g opacity="0.25">
<path d="M7.63324 23.05L7.34473 25.9013C7.57832 25.7684 7.8097 25.6348 8.0359 25.5025L8.20712 22.7234L7.63324 23.05Z" fill="#2D0000"/>
</g>
<g opacity="0.25">
<path d="M8.92072 22.3503L8.70215 25.1033L8.70449 25.1065C8.85842 25.0134 9.00649 24.9225 9.14702 24.8347L9.4313 22.0393L8.92072 22.3503Z" fill="#2D0000"/>
</g>
<g opacity="0.25">
<path d="M10.1373 21.7101L9.78516 24.4209C9.91368 24.3337 10.0262 24.2537 10.1225 24.1812C10.2025 23.7394 10.6271 21.4415 10.6271 21.4415L10.1373 21.7101Z" fill="#2D0000"/>
</g>
<g opacity="0.25">
<path d="M29.9521 8.63185C29.9521 8.63185 3.42834 23.6414 3.46195 23.7556C3.49557 23.8699 3.84255 23.9504 3.87767 23.9573C3.92051 23.9656 3.96988 23.965 4.02301 23.9584L30.7568 8.59401C30.7422 8.18927 30.5805 8.01609 30.459 7.94266C30.4527 7.93963 30.4466 7.93679 30.441 7.93248C30.4064 7.91363 30.3758 7.90248 30.3548 7.89661L29.738 8.24565C30.0343 8.31734 29.9521 8.63185 29.9521 8.63185Z" fill="#2D0000"/>
</g>
<g opacity="0.25">
<path d="M29.1753 5.26429C28.843 5.18877 27.5419 4.79632 29.0644 5.90621C29.6401 6.32594 30.8615 7.4522 30.8615 7.4522C30.8881 7.4631 30.9226 7.46351 30.9597 7.45767L34.6221 5.2787C34.4311 5.3354 31.8887 6.11122 31.7665 6.11122C31.6388 6.11122 29.7299 5.39032 29.1753 5.26429Z" fill="#2D0000"/>
</g>
<g opacity="0.25">
<path d="M31.4511 8.04659C31.7263 9.09517 31.4492 12.5131 31.4492 12.5131C32.0594 10.2647 32.3111 7.92559 32.3716 7.84891C32.4321 7.77223 33.884 6.26196 33.884 6.26196L31.4511 8.04659Z" fill="#2D0000"/>
</g>
<g opacity="0.4">
<path d="M4.15918 19.7872L4.65564 20.0434L5.593 19.5978L6.84024 19.7619L5.55003 19.1268C5.15711 19.3101 4.73851 19.5082 4.30472 19.717C4.25528 19.7408 4.20755 19.7639 4.15918 19.7872Z" fill="black"/>
</g>
<g opacity="0.4">
<path d="M5.79199 19.0139L6.28311 19.2557L7.13796 18.8785L8.58123 19.2684L8.13302 18.9433L7.09113 18.424C6.71987 18.5885 6.2794 18.7881 5.79199 19.0139Z" fill="black"/>
</g>
<g opacity="0.4">
<path d="M9.88029 18.4299C9.15839 18.1684 8.45298 17.9323 8.29099 17.9323C8.28804 17.9323 8.28518 17.9324 8.28254 17.9325C8.21737 17.9421 7.87152 18.082 7.33887 18.315L7.82301 18.5563L8.39964 18.3093L9.88029 18.4299Z" fill="black"/>
</g>
<g opacity="0.4">
<path d="M3.92614 20.3575L5.42443 20.7415L5.10293 20.509L3.92474 19.901C3.2769 20.2161 2.73313 20.4895 2.2832 20.7237L2.71071 20.9352L3.92614 20.3575Z" fill="black"/>
</g>
<g opacity="0.4">
<path d="M3.46231 21.5389L2.05567 20.8431C1.00412 21.3985 0.53134 21.7095 0.459961 21.8207C0.482195 21.873 0.583069 21.9419 0.746371 22.0216L2.05394 21.3252L3.46231 21.5389Z" fill="black"/>
</g>
<g opacity="0.4">
<path d="M8.78221 21.464L7.73383 22.0665L7.68555 22.5437L8.74457 21.9381L8.78221 21.464Z" fill="black"/>
</g>
<g opacity="0.4">
<path d="M7.51055 22.1937L6.01883 23.051L5.96582 23.5261L7.46233 22.6703L7.51055 22.1937Z" fill="black"/>
</g>
<g opacity="0.4">
<path d="M10.0534 20.7319L8.99961 21.3376L8.96191 21.8123L9.9894 21.2247L10.0534 20.7319Z" fill="black"/>
</g>
<g opacity="0.4">
<path d="M5.79534 23.1804L4.41114 23.976C4.38222 24.1379 4.35348 24.3015 4.3252 24.4653L5.74244 23.6548L5.79534 23.1804Z" fill="black"/>
</g>
<g opacity="0.4">
<path d="M11.3495 19.9873L10.2809 20.6014L10.2168 21.0949L11.2502 20.504C11.2911 20.2942 11.3252 20.1157 11.3495 19.9873Z" fill="black"/>
</g>
<path d="M27.6535 4.40686C28.1173 4.17495 32.7956 4.03381 35.5481 4.30603C35.6725 4.32283 35.7834 4.37661 35.7733 4.4371C35.7632 4.4976 34.7919 6.67543 34.1265 8.44994C33.6308 9.77163 33.264 11.2214 33.109 11.8755C34.3192 9.248 36.3124 4.52783 36.1748 4.12362C35.9077 3.69141 29.4868 3.39056 27.7976 3.73425C27.1609 3.86372 26.7811 4.10358 26.7282 4.40957C26.6748 4.71781 26.9513 5.10209 27.4744 5.46034C27.4719 5.45321 27.1917 4.63774 27.6535 4.40686Z" fill="black"/>
<path d="M30.2148 4.64606C30.2148 4.64606 31.0711 4.96893 31.2677 5.01104C31.4642 5.05316 34.7262 4.65187 34.6508 4.64606C32.6597 4.49265 30.2148 4.64606 30.2148 4.64606Z" fill="black"/>
<path d="M14.2901 17.3866L14.0078 18.1125L14.7472 17.7496L15.0295 17.0371L15.4933 16.748L15.379 17.3462L15.7689 17.0572C15.7689 17.0572 15.8697 16.4388 15.8697 16.459C15.8697 16.4791 14.2901 17.3866 14.2901 17.3866Z" fill="black"/>
<path d="M1.84082 22.4324L9.16005 18.6169L9.3451 18.6959L2.15775 22.6708L1.84082 22.4324Z" fill="black"/>
<path d="M4.21641 25.1035L10.6861 21.9381V22.2046L4.00879 25.745L4.21641 25.1035Z" fill="black"/>
<path d="M3.56018 24.506C3.35054 24.506 3.04289 24.4606 2.83792 24.2284C2.62982 23.9927 2.59471 23.6462 2.73362 23.1986C2.75258 23.1376 2.79412 23.086 2.84976 23.0545L30.2138 7.56777C30.26 7.54161 30.3132 7.53063 30.3662 7.53686C30.6245 7.56665 31.1128 7.83833 31.1128 8.6534C31.1128 8.74328 31.0648 8.82631 30.9868 8.87113L3.86484 24.4587C3.83975 24.4731 3.81236 24.4831 3.78385 24.4882C3.76134 24.4922 3.67559 24.506 3.56018 24.506ZM3.18709 23.4407C3.13373 23.6544 3.14264 23.814 3.21384 23.8954C3.31249 24.0082 3.54281 24.0101 3.65726 23.9988L30.6038 8.51204C30.5731 8.2129 30.4467 8.10021 30.3665 8.05837L3.18709 23.4407Z" fill="black"/>
<path d="M31.2224 14.5594C31.1234 14.5594 31.0307 14.545 30.9465 14.5186C30.4918 14.3762 30.242 13.9085 30.3251 13.3548C30.493 12.2352 30.6833 9.91048 30.6118 8.66772C30.6038 8.52926 30.7095 8.41054 30.848 8.40259C30.9875 8.39459 31.1052 8.50043 31.1131 8.63881C31.1866 9.91376 30.9929 12.2882 30.8217 13.4293C30.7762 13.7333 30.884 13.9727 31.0966 14.0393C31.4313 14.1441 32.005 13.8254 32.4722 12.8777C33.5436 10.7045 35.9691 5.03363 36.0309 4.20397C35.7714 4.07693 34.6401 3.87592 32.3331 3.77994C30.3669 3.69806 28.514 3.73856 27.8272 3.87824C27.2623 3.99315 26.9146 4.19597 26.8732 4.43466C26.8355 4.65299 27.0448 5.03715 27.7457 5.46062C29.0435 6.2447 30.4499 7.5472 30.5091 7.60226C30.6107 7.6967 30.6165 7.85555 30.5221 7.95714C30.4277 8.05872 30.2688 8.06454 30.1672 7.97012C30.1531 7.95696 28.7389 6.64742 27.486 5.89051C26.6836 5.40571 26.2902 4.85827 26.3784 4.34902C26.4347 4.0234 26.7145 3.59208 27.7271 3.38613C28.6116 3.20622 30.8529 3.20877 32.5611 3.28722C36.3191 3.45986 36.4483 3.82891 36.5104 4.00627C36.5616 4.15255 36.6681 4.45688 35.1407 8.12141C34.301 10.1358 33.3712 12.1899 32.9227 13.0998C32.3864 14.1877 31.7235 14.5594 31.2224 14.5594ZM36.031 4.15108C36.031 4.15105 36.031 4.15113 36.031 4.15108V4.15108Z" fill="black"/>
<path d="M30.3727 7.63596L34.9151 5.10437L30.638 8.06236C30.3451 8.24939 30.0747 7.81708 30.3727 7.63596Z" fill="black"/>
<path d="M3.8165 28.0857C3.74618 28.0857 3.68538 28.0636 3.63505 28.0195C3.50735 27.9078 3.43026 27.8403 3.74986 25.7787C3.89783 24.8243 4.06773 23.8749 4.06944 23.8654C4.0939 23.7288 4.22426 23.6377 4.36091 23.6625C4.49743 23.687 4.58825 23.8175 4.56375 23.954C4.31406 25.3472 4.07639 26.8852 4.03232 27.4972C5.24738 26.9661 10.0281 24.2684 10.3333 23.7934C10.5261 23.3994 10.9859 21.152 11.2471 19.739C11.2723 19.6026 11.4032 19.5128 11.5397 19.5377C11.6761 19.563 11.7662 19.6939 11.741 19.8303C11.6732 20.197 11.0703 23.4303 10.7812 24.0202C10.6338 24.3209 9.50989 25.0721 7.44067 26.2528C6.23125 26.9428 4.28847 27.9983 3.89321 28.0777C3.86653 28.083 3.84093 28.0857 3.8165 28.0857Z" fill="black"/>
<path d="M5.46824 27.3056C5.45893 27.3056 5.44956 27.3051 5.44007 27.304C5.30225 27.2886 5.20297 27.1644 5.21837 27.0266L5.67204 22.9598C5.68737 22.822 5.8114 22.7228 5.94944 22.7381C6.08726 22.7535 6.18655 22.8777 6.17114 23.0155L5.71747 27.0823C5.70317 27.2107 5.59442 27.3056 5.46824 27.3056Z" fill="black"/>
<path d="M7.22118 26.3394C7.21272 26.3394 7.20419 26.339 7.19558 26.3381C7.05759 26.3242 6.95706 26.201 6.97102 26.063L7.38451 21.977C7.39843 21.839 7.52148 21.7381 7.65962 21.7525C7.79761 21.7664 7.89814 21.8896 7.88418 22.0276L7.47069 26.1136C7.45762 26.243 7.34846 26.3394 7.22118 26.3394Z" fill="black"/>
<path d="M8.58148 25.545C8.57478 25.545 8.56808 25.5448 8.56133 25.5442C8.42309 25.5332 8.31992 25.4123 8.33088 25.274L8.64994 21.2552C8.66094 21.117 8.78255 21.0146 8.92016 21.0247C9.05839 21.0357 9.16156 21.1567 9.15061 21.295L8.83154 25.3138C8.8211 25.4453 8.71113 25.545 8.58148 25.545Z" fill="black"/>
<path d="M9.6538 24.8738C9.64302 24.8738 9.63213 24.873 9.62113 24.8716C9.4836 24.8538 9.38659 24.7278 9.40447 24.5903L9.93523 20.5047C9.95313 20.3672 10.0789 20.2706 10.2166 20.288C10.3541 20.3059 10.4512 20.4319 10.4333 20.5694L9.90251 24.655C9.88605 24.7815 9.77808 24.8738 9.6538 24.8738Z" fill="black"/>
<path d="M30.091 5.31162C30.091 5.31162 28.7506 5.87408 28.7229 5.87408C28.6952 5.87408 28.3672 5.60668 28.3672 5.60668L29.6989 5.1355L30.091 5.31162Z" fill="black"/>
<path d="M31.2165 5.79529C31.2165 5.79529 29.6577 6.47677 29.6256 6.47677C29.5934 6.47677 29.2119 6.15279 29.2119 6.15279L30.7605 5.58191L31.2165 5.79529Z" fill="black"/>
<path d="M24.7354 34.58C25.1893 34.716 25.5329 34.6061 25.5695 34.5436C25.6181 34.46 25.4255 34.1265 25.2708 33.8584C25.1428 33.6367 24.9943 33.3793 24.8685 33.1008L23.582 32.5499C23.5377 33.9988 24.281 34.444 24.7354 34.58Z" fill="black"/>
<path d="M9.04964 3.27844C10.1885 3.03354 11.4336 2.81027 12.8222 2.81027C14.3588 2.81027 16.071 3.08335 18.0116 3.90269C21.0385 5.18075 21.1327 6.94571 21.2751 9.6173C21.3072 10.2167 21.3402 10.8365 21.4087 11.5166C21.6721 14.1323 22.8148 15.0849 23.9199 16.0062C24.365 16.3773 24.8254 16.761 25.2048 17.2432C26.4226 18.7907 26.6874 21.4285 25.9505 24.6708C25.6587 25.9547 25.2048 27.1123 24.7658 28.2318C24.2148 29.637 23.6948 30.9666 23.596 32.3286L24.757 32.8257C24.6518 32.5393 24.5816 32.2368 24.5885 31.9317C24.6421 31.0211 25.1882 30.0739 25.8206 28.9771C26.5059 27.7884 27.2827 26.4411 27.7106 24.73C28.6657 20.909 28.5337 16.294 26.0853 14.597C23.3578 12.7067 23.1625 10.8396 23.1905 8.59497C23.2181 6.37771 22.1765 3.44804 17.0569 2.08288C13.1614 1.04396 10.6612 1.66893 9.16716 2.04238C8.64817 2.1721 8.23824 2.27456 7.91541 2.27456C7.76356 2.27456 7.62831 2.24829 7.50721 2.20255L7.28223 3.3533C7.76354 3.4526 8.35436 3.42803 9.04964 3.27844Z" fill="black"/>
<path d="M7.31377 2.10577C6.67405 1.7001 6.53522 0.678807 6.50717 0.355957C6.37215 0.362208 6.25108 0.418067 6.14618 0.522666C5.90158 0.766803 5.78752 1.22817 5.84114 1.75678C5.88011 2.14076 6.02998 2.67374 6.52304 3.0324C6.68397 3.14944 6.87031 3.23868 7.07993 3.30181L7.31377 2.10577Z" fill="black"/>
<g opacity="0.25">
<path d="M23.5829 32.5499C23.5387 33.9988 24.282 34.444 24.7364 34.58C24.8997 34.6289 25.0483 34.6457 25.1739 34.6447C24.9896 34.445 24.3787 33.7249 24.2033 32.8156L23.5829 32.5499Z" fill="#2D0000"/>
</g>
<path d="M25.6586 29.2583C25.6586 29.2583 25.6593 29.2572 25.6596 29.2568C25.7125 29.1646 25.7659 29.0717 25.8203 28.9774C26.5056 27.7887 27.2824 26.4414 27.7103 24.7303C28.5013 21.5658 28.5451 17.8584 27.1466 15.7133C26.9245 15.4225 26.7195 15.1568 26.7113 15.1461C26.711 15.1458 26.7108 15.1456 26.7106 15.1454C26.7138 15.1536 28.02 18.4844 27.2748 22.9153C26.6801 26.451 24.5452 29.0165 23.7654 31.211C23.6827 31.5827 23.6229 31.9545 23.5957 32.3288L24.1682 32.574C24.1655 32.5471 24.161 32.5208 24.1593 32.4937C24.0786 31.2636 25.6586 29.2583 25.6586 29.2583Z" fill="black"/>
<g opacity="0.25">
<path d="M6.39404 2.05113C6.17869 1.66404 6.16376 0.818176 6.30567 0.408081C6.24914 0.435642 6.19573 0.473266 6.14618 0.522656C5.90158 0.766793 5.78752 1.22816 5.84114 1.75677C5.88011 2.14075 6.02998 2.67373 6.52304 3.03239C6.68397 3.14943 6.87031 3.23867 7.07993 3.3018L7.1855 2.76189C6.81278 2.59697 6.55224 2.33555 6.39404 2.05113Z" fill="#2D0000"/>
</g>
<path d="M24.9479 16.0992C23.6722 15.0641 22.5295 14.0423 22.18 12.6039C21.8305 11.1655 22.5967 6.67539 20.5097 4.74627C18.9756 3.3283 16.2179 2.34664 13.5695 2.3063C10.9212 2.26598 9.59603 2.75639 8.5518 2.90622C8.08909 2.9726 7.70222 2.9367 7.38342 2.8358L7.28223 3.35331C7.76356 3.45258 8.35438 3.428 9.04966 3.27843C10.1885 3.03353 11.4336 2.81026 12.8222 2.81026C14.3588 2.81026 16.071 3.08334 18.0116 3.90268C21.0385 5.18074 21.1327 6.9457 21.2751 9.61729C21.3072 10.2167 21.3403 10.8365 21.4087 11.5165C21.6721 14.1323 22.8148 15.0849 23.9199 16.0062C24.365 16.3773 24.8254 16.761 25.2048 17.2432C25.6261 17.7785 25.9331 18.4445 26.1243 19.2207L26.2063 18.8685C26.2063 18.8685 26.2235 17.1343 24.9479 16.0992Z" fill="black"/>
<g opacity="0.4">
<path d="M12.2653 1.97048C15.3102 1.81589 17.682 2.44269 19.8966 3.66506C22.1112 4.88743 22.7074 7.49907 22.7377 9.06186C22.768 10.6247 22.7276 13.2058 25.7322 14.3955C25.7322 14.3955 25.6175 14.2911 25.4412 14.1129C23.3272 12.3851 23.1647 10.648 23.1903 8.59521C23.2179 6.37795 22.1763 3.44828 17.0567 2.08312C13.1612 1.0442 10.661 1.66917 9.16695 2.04263C8.64795 2.17235 8.23803 2.27481 7.91519 2.27481C7.76334 2.27481 7.62809 2.24853 7.50699 2.20279L7.44238 2.53325C8.47997 2.86087 9.34046 2.11898 12.2653 1.97048Z" fill="white"/>
</g>
<g opacity="0.4">
<path d="M6.50726 0.355957C6.50583 0.356015 6.50453 0.356462 6.50312 0.356548C6.42833 0.437817 6.33928 0.551165 6.337 0.632852C6.337 0.632852 6.22058 1.99128 7.24504 2.45786L7.31388 2.10579C6.67414 1.7001 6.53531 0.678807 6.50726 0.355957Z" fill="white"/>
</g>
<path d="M25.8223 25.9402L26.0972 28.4939C26.0972 28.4939 26.6991 27.6092 26.7319 27.5449C26.7648 27.4805 26.2771 25.631 26.2771 25.631L26.5751 24.6093L27.1483 26.4087L27.3927 25.7771L26.7768 23.9237L25.8223 25.9402Z" fill="black"/>
<path d="M9.45801 2.45245L10.102 3.01049L10.7017 2.87807L10.2908 2.39652L10.9904 2.22583L11.4679 2.83327L11.8677 2.84564L11.5123 2.22583L9.45801 2.45245Z" fill="black"/>
<path d="M25.1737 35C24.9951 35 24.8064 34.972 24.6341 34.9204C24.1795 34.7843 23.1326 34.2693 23.2314 32.4316C23.31 30.9697 23.8562 29.5769 24.4344 28.1023C24.8686 26.995 25.3175 25.8501 25.6034 24.5923C26.316 21.4566 26.0751 18.9248 24.9249 17.4631C24.5686 17.0103 24.1427 16.6552 23.6918 16.2794C22.5859 15.3575 21.3325 14.3126 21.0545 11.5524C20.9852 10.864 20.9519 10.2401 20.9197 9.63662C20.7796 7.00832 20.6949 5.42184 17.8727 4.23026C14.2733 2.71049 11.5769 3.09843 9.12372 3.62601C7.89992 3.88921 6.95448 3.78611 6.31339 3.31964C5.71425 2.88373 5.53336 2.24864 5.48712 1.79263C5.42286 1.15877 5.57523 0.589981 5.89472 0.271173C6.09785 0.0684574 6.35185 -0.0236388 6.62989 0.00516392C6.75379 0.0179555 6.84955 0.119652 6.85494 0.244074C6.85567 0.260822 6.94062 1.9195 7.9148 1.9195C8.19386 1.9195 8.58507 1.82172 9.08037 1.69789C10.6075 1.31623 13.1635 0.677226 17.1479 1.73976C19.5468 2.37947 21.3025 3.42834 22.3662 4.85721C23.1661 5.93166 23.5627 7.19082 23.5451 8.5997C23.5184 10.7372 23.7033 12.5145 26.287 14.3052C27.5608 15.188 28.3462 16.8341 28.5584 19.0653C28.7219 20.7854 28.5383 22.8817 28.0546 24.8164C27.6148 26.5757 26.8248 27.9459 26.1278 29.1548C25.5191 30.2106 24.9932 31.1227 24.9431 31.9443C24.9309 32.5579 25.2902 33.1803 25.5791 33.6807C25.8504 34.1505 26.0296 34.4609 25.877 34.7226C25.7645 34.9153 25.4841 35 25.1737 35ZM12.8232 2.66289C14.3753 2.66289 16.1057 2.93902 18.0681 3.76763C21.1797 5.08141 21.281 6.98088 21.4213 9.6099C21.4531 10.2075 21.4861 10.8255 21.5542 11.5021C21.8117 14.0582 22.931 14.9913 24.0134 15.8936C24.4644 16.2696 24.9307 16.6583 25.3196 17.1526C26.5653 18.7357 26.84 21.4174 26.0931 24.7036C25.7988 25.9983 25.3429 27.1611 24.902 28.2856C24.339 29.7214 23.8072 31.0776 23.7329 32.4586C23.6702 33.6256 24.127 34.1223 24.5213 34.3336C24.9024 34.5377 25.2818 34.51 25.4199 34.464C25.3834 34.3462 25.2474 34.1106 25.1442 33.9318C24.8402 33.4053 24.4239 32.6842 24.4411 31.9286C24.4411 31.9256 24.4412 31.9225 24.4414 31.9195C24.4968 30.9781 25.051 30.0169 25.6926 28.904C26.3732 27.7236 27.1446 26.3858 27.5674 24.6946C28.5103 20.9227 28.3917 16.375 26.001 14.718C23.2188 12.7898 23.0153 10.8035 23.0429 8.59346C23.0699 6.42833 22.0467 3.56595 17.0184 2.22509C13.1594 1.19596 10.6822 1.81523 9.20213 2.18516C8.67335 2.31733 8.25566 2.42174 7.91479 2.42174C6.75906 2.42174 6.4563 1.11522 6.37888 0.53483C6.33315 0.55549 6.29019 0.58604 6.24944 0.626724C6.03898 0.83676 5.93832 1.26411 5.98678 1.742C6.02266 2.09614 6.15974 2.58685 6.60886 2.91356C7.12951 3.29232 7.94017 3.36691 9.01811 3.13505C10.1666 2.88806 11.4222 2.66289 12.8232 2.66289ZM25.4642 34.4433C25.4642 34.4433 25.4642 34.4434 25.4641 34.4434C25.4642 34.4434 25.4642 34.4434 25.4642 34.4433Z" fill="black"/>
<path d="M24.9474 33.2722C24.9144 33.2722 24.8809 33.2657 24.8487 33.2519L3.09762 23.9378C2.98878 23.8912 2.9273 23.775 2.95 23.6588L7.18383 2.00304C7.21044 1.86688 7.34227 1.77812 7.47847 1.80478C7.61456 1.83138 7.70335 1.96328 7.67674 2.09941L3.48181 23.556L25.0463 32.7902C25.1738 32.8448 25.2329 32.9924 25.1783 33.1199C25.1375 33.2151 25.0448 33.2722 24.9474 33.2722Z" fill="black"/>
<path d="M25.3184 15.6252C25.3184 15.6252 26.4977 16.6386 26.6699 18.2428C26.6699 18.2428 27.0783 15.4038 25.3184 15.6252Z" fill="black"/>
<path d="M9.24394 19.4974L6.99056 18.3743C6.6193 18.5388 6.17881 18.7384 5.69141 18.9643L8.0953 20.1475L9.24394 19.4974Z" fill="black"/>
<path d="M10.6495 18.7033C9.73719 18.355 8.42142 17.8828 8.19235 17.8828C8.18941 17.8828 8.18655 17.8829 8.18391 17.8831C8.11874 17.8926 7.77289 18.0326 7.24023 18.2656L9.46436 19.3741L10.6495 18.7033Z" fill="black"/>
<path d="M7.87647 20.2719L5.44944 19.0773C5.05652 19.2605 4.63792 19.4586 4.20414 19.6674C4.15469 19.6912 4.10694 19.7143 4.05859 19.7377L6.54934 21.023L7.87647 20.2719Z" fill="black"/>
<path d="M4.6232 22.1135L1.95509 20.7937C0.903536 21.3491 0.430754 21.6601 0.359375 21.7713C0.448252 21.9804 1.7957 22.4549 3.36266 22.8269L4.6232 22.1135Z" fill="black"/>
<path d="M6.33248 21.1454L3.82415 19.8511C3.17632 20.1662 2.63255 20.4396 2.18262 20.6738L4.84175 21.9891L6.33248 21.1454Z" fill="black"/>
<g opacity="0.25">
<path d="M6.55273 19.388L8.09624 20.1477L8.70185 19.805L7.21644 19.108L6.55273 19.388Z" fill="#2D0000"/>
</g>
<g opacity="0.25">
<path d="M4.94141 20.1932L6.54942 21.023L7.27929 20.6099L5.59376 19.8894L4.94141 20.1932Z" fill="#2D0000"/>
</g>
<g opacity="0.25">
<path d="M8.05176 18.6703L9.46312 19.3738L10.0669 19.0321L8.48107 18.4879L8.05176 18.6703Z" fill="#2D0000"/>
</g>
<g opacity="0.25">
<path d="M1.24609 22.2165C1.7958 22.4133 2.54913 22.6338 3.36209 22.8268L4.13176 22.3912L2.2353 21.6992L1.24609 22.2165Z" fill="#2D0000"/>
</g>
<g opacity="0.25">
<path d="M3.0459 21.101L4.84213 21.9894L5.67227 21.5196L3.89922 20.7163L3.0459 21.101Z" fill="#2D0000"/>
</g>
<g opacity="0.4">
<path d="M4.05859 19.7377L4.55505 19.9939L5.49242 19.5483L6.73965 19.7123L5.44944 19.0773C5.05652 19.2605 4.63792 19.4586 4.20414 19.6674C4.15469 19.6912 4.10694 19.7143 4.05859 19.7377Z" fill="white"/>
</g>
<g opacity="0.4">
<path d="M5.69141 18.9643L6.18252 19.206L7.03738 18.8288L8.48065 19.2187L8.03243 18.8936L6.99054 18.3743C6.6193 18.5388 6.17881 18.7384 5.69141 18.9643Z" fill="white"/>
</g>
<g opacity="0.4">
<path d="M9.78166 18.3805C9.05976 18.119 8.35434 17.8828 8.19235 17.8828C8.18941 17.8828 8.18655 17.8829 8.18391 17.8831C8.11874 17.8926 7.77289 18.0326 7.24023 18.2656L7.72438 18.5069L8.30101 18.2599L9.78166 18.3805Z" fill="white"/>
</g>
<g opacity="0.4">
<path d="M3.82555 20.3076L5.32384 20.6916L5.00235 20.459L3.82415 19.8511C3.17632 20.1662 2.63255 20.4396 2.18262 20.6738L2.61012 20.8852L3.82555 20.3076Z" fill="white"/>
</g>
<g opacity="0.4">
<path d="M3.36173 21.4895L1.95509 20.7937C0.903536 21.3491 0.430754 21.6601 0.359375 21.7713C0.381609 21.8236 0.482483 21.8924 0.645785 21.9721L1.95335 21.2758L3.36173 21.4895Z" fill="white"/>
</g>
<path d="M1.74023 22.3826L9.05948 18.5671L9.24451 18.6461L2.05718 22.621L1.74023 22.3826Z" fill="black"/>
<path d="M3.37809 23.1888C3.35902 23.1888 3.33967 23.1866 3.32028 23.182C3.31253 23.1802 2.53698 22.9968 1.76413 22.7611C0.193666 22.2821 0.0328616 22.0263 0.00273066 21.8054C-0.00959891 21.7149 0.0198681 21.6255 0.0902506 21.5396C0.418659 21.1388 2.51197 20.0844 4.2102 19.2704C4.96802 18.9072 7.85947 17.547 8.16076 17.5282C8.49984 17.5052 10.2476 18.1663 10.9826 18.4508C11.1119 18.5009 11.1762 18.6463 11.1261 18.7757C11.0761 18.9049 10.9307 18.9691 10.8013 18.9192C9.70066 18.4931 8.44281 18.0502 8.19974 18.0302C7.94914 18.101 6.25428 18.8448 4.31186 19.7787C2.0264 20.8775 0.911899 21.5099 0.577124 21.7679C0.957305 22.0101 2.27743 22.4202 3.43546 22.6932C3.57047 22.725 3.6541 22.8602 3.62228 22.9952C3.59504 23.1109 3.49194 23.1888 3.37809 23.1888Z" fill="black"/>
<path d="M9.46635 19.7429C9.42871 19.7429 9.39049 19.7344 9.3545 19.7165L6.88231 18.4843C6.7582 18.4225 6.70773 18.2717 6.76958 18.1476C6.8314 18.0234 6.98227 17.973 7.10633 18.0349L9.57852 19.267C9.70263 19.3289 9.7531 19.4796 9.69125 19.6038C9.64733 19.6919 9.55856 19.7429 9.46635 19.7429Z" fill="black"/>
<path d="M8.09945 20.5169C8.06219 20.5169 8.0244 20.5086 7.98873 20.491L5.34047 19.1875C5.21605 19.1262 5.16482 18.9757 5.22605 18.8513C5.28736 18.7269 5.43785 18.6757 5.56224 18.7369L8.2105 20.0404C8.33492 20.1017 8.38615 20.2522 8.32492 20.3766C8.28123 20.4653 8.19212 20.5169 8.09945 20.5169Z" fill="black"/>
<path d="M6.55111 21.3924C6.51233 21.3924 6.473 21.3833 6.43617 21.3643L3.71023 19.9577C3.587 19.8942 3.53864 19.7427 3.60222 19.6194C3.66577 19.4961 3.81726 19.4478 3.94053 19.5114L6.66648 20.918C6.7897 20.9816 6.83807 21.1331 6.77447 21.2563C6.72989 21.3428 6.64208 21.3924 6.55111 21.3924Z" fill="black"/>
<path d="M4.84541 22.3582C4.80802 22.3582 4.77005 22.3498 4.73424 22.3321L1.84196 20.9015C1.71769 20.84 1.66675 20.6894 1.72822 20.565C1.78973 20.4408 1.94034 20.39 2.06466 20.4513L4.95694 21.8819C5.08122 21.9434 5.13215 22.0941 5.07068 22.2184C5.0269 22.3069 4.9379 22.3582 4.84541 22.3582Z" fill="black"/>
</svg>
