<svg width="68" height="52" viewBox="0 0 68 52" fill="none" xmlns="http://www.w3.org/2000/svg">
<path d="M31.1211 45.583C39.9402 42.0388 43.6974 30.7251 39.5131 20.3132C35.3288 9.90124 24.7875 4.33381 15.9684 7.87799C7.14929 11.4222 3.39205 22.7358 7.57635 33.1478C11.7606 43.5597 22.302 49.1271 31.1211 45.583Z" fill="#FF4C4C"/>
<path d="M24.3324 6.55945L20.2412 6.86429L26.9517 46.5833L31.0428 46.2789L24.3324 6.55945Z" fill="#FF4C4C"/>
<g opacity="0.1">
<path d="M31.1211 45.583C39.9402 42.0388 43.6974 30.7251 39.5131 20.3132C35.3288 9.90124 24.7875 4.33381 15.9684 7.87799C7.14929 11.4222 3.39205 22.7358 7.57635 33.1478C11.7606 43.5597 22.302 49.1271 31.1211 45.583Z" fill="black"/>
<path d="M24.3324 6.55945L20.2412 6.86429L26.9517 46.5833L31.0428 46.2789L24.3324 6.55945Z" fill="black"/>
</g>
<path d="M34.8838 45.3024C43.7029 41.7583 47.4601 30.4446 43.2758 20.0327C39.0915 9.62072 28.5502 4.0533 19.7311 7.59747C10.912 11.1416 7.15474 22.4553 11.339 32.8673C15.5233 43.2792 26.0647 48.8466 34.8838 45.3024Z" fill="#FF4C4C"/>
<path d="M33.2162 41.1556C40.0955 38.391 43.0264 29.5659 39.7625 21.4443C36.4986 13.3226 28.2759 8.97991 21.3966 11.7445C14.5172 14.5092 11.5863 23.3343 14.8502 31.4559C18.1141 39.5776 26.3368 43.9203 33.2162 41.1556Z" fill="white"/>
<path d="M31.5675 37.0523C36.5273 35.0591 38.6403 28.6965 36.2871 22.8409C33.9339 16.9854 28.0056 13.8543 23.0458 15.8475C18.0861 17.8407 15.9731 24.2034 18.3263 30.0589C20.6795 35.9145 26.6078 39.0455 31.5675 37.0523Z" fill="#FF4C4C"/>
<path d="M29.9015 32.9046C32.9211 31.6911 34.2076 27.8175 32.775 24.2526C31.3424 20.6878 27.7331 18.7817 24.7135 19.9952C21.694 21.2086 20.4075 25.0823 21.8401 28.6471C23.2727 32.212 26.8819 34.1181 29.9015 32.9046Z" fill="white"/>
<path d="M24.6104 26.1176C24.6187 27.7838 25.8313 29.2832 27.319 29.4661C28.807 29.649 30.0063 28.447 29.998 26.7804C29.9898 25.1142 28.7771 23.6148 27.2895 23.4315C25.8014 23.2486 24.6021 24.451 24.6104 26.1176Z" fill="#FF4C4C"/>
<path d="M63.8743 9.06539L35.8242 20.338L35.9416 20.63L63.9916 9.35738L63.8743 9.06539Z" fill="#263238"/>
<path d="M65.0641 9.95605L64.998 9.92222L63.8145 9.42347L66.3464 8.40588L67.6102 8.93296L65.0641 9.95605Z" fill="#263238"/>
<path d="M66.7915 6.89258L66.2318 8.11745L63.7002 9.13503C63.9303 8.75545 64.1124 8.34323 64.2528 7.91291L66.7915 6.89258Z" fill="#263238"/>
<path d="M35.249 20.1866L35.6609 21.1385L37.01 21.1582L36.2037 20.3519L36.2273 19.2151L35.249 20.1866Z" fill="#263238"/>
<path d="M41.8724 2.98462L18.8193 22.5402L19.0229 22.7801L42.076 3.22459L41.8724 2.98462Z" fill="#263238"/>
<path d="M43.2855 3.45203L43.2124 3.44062L41.9316 3.3411L44.0124 1.57617L45.3781 1.67687L43.2855 3.45203Z" fill="#263238"/>
<path d="M43.9556 0L43.8113 1.33894L41.7305 3.10388C41.8288 2.6712 41.8713 2.22239 41.8689 1.77005L43.9556 0Z" fill="#263238"/>
<path d="M18.0938 22.8419L18.6326 23.4359L20.206 22.9442L19.1872 22.4328L18.849 21.3433L18.0938 22.8419Z" fill="#263238"/>
<path d="M34.829 25.5878L34.7285 25.886L63.3771 35.5353L63.4776 35.2371L34.829 25.5878Z" fill="#263238"/>
<path d="M63.8049 36.6917L63.777 36.6229L63.2012 35.4747L65.787 36.346L66.4057 37.5677L63.8049 36.6917Z" fill="#263238"/>
<path d="M67.107 35.4837L65.8856 36.0513L63.2998 35.1804C63.7215 35.0416 64.1274 34.8461 64.5137 34.6105L67.107 35.4837Z" fill="#263238"/>
<path d="M34.1944 25.1241L33.9639 25.8923L35.197 26.9862L35.1089 25.8494L35.8677 24.9974L34.1944 25.1241Z" fill="#263238"/>
</svg>
