<svg width="57" height="46" viewBox="0 0 57 46" fill="none" xmlns="http://www.w3.org/2000/svg">
<path d="M23.7398 1.26599C31.7921 1.14382 38.9425 5.00567 43.092 10.9146L44.2378 10.2604C39.8491 3.98086 32.2626 -0.125984 23.719 0.00295086C10.4285 0.203115 -0.208996 10.5698 0.00311788 23.1116C0.216311 35.6517 11.2002 45.6916 24.49 45.4914C37.7794 45.2902 48.4193 34.9234 48.2065 22.3834C48.1429 18.6264 47.1064 15.0975 45.3385 11.9982L44.1908 12.6524C45.841 15.5657 46.8081 18.8787 46.8675 22.4036C47.0683 34.248 37.0195 44.039 24.468 44.2273C11.9188 44.4179 1.54268 34.9352 1.34127 23.092C1.14133 11.2465 11.1895 1.45551 23.7398 1.26599Z" fill="#32CD32"/>
<path d="M23.8456 7.5299C29.4635 7.44468 34.4522 10.0844 37.4087 14.1525L42.0179 11.5258C38.0972 5.96712 31.3608 2.34295 23.7606 2.45734C11.8845 2.63676 2.4132 11.8661 2.60441 23.0719C2.79453 34.2773 12.5748 43.2168 24.4486 43.0369C36.3228 42.8574 45.7949 33.6276 45.6054 22.4223C45.5501 19.1127 44.6508 16.0031 43.1146 13.2652L38.4906 15.9005C39.5557 17.8905 40.1895 20.125 40.2299 22.5035C40.3725 30.9071 33.2696 37.8302 24.3625 37.9648C15.4572 38.0993 8.12261 31.3948 7.97822 22.9906C7.83796 14.5864 14.9409 7.66439 23.8456 7.5299Z" fill="#32CD32"/>
<path d="M23.9323 12.602C27.5678 12.5471 30.8042 14.2064 32.7942 16.7828L37.4092 14.1525C34.4527 10.0844 29.4639 7.44462 23.8461 7.52984C14.9415 7.66442 7.83844 14.5864 7.9786 22.9905C8.12299 31.3948 15.4576 38.0992 24.3629 37.9647C33.27 37.8301 40.3729 30.907 40.2303 22.5034C40.19 20.1249 39.5561 17.8905 38.491 15.9004L33.88 18.529C34.4812 19.7662 34.8317 21.1362 34.8561 22.5847C34.9505 28.187 30.2148 32.8029 24.2762 32.892C18.3412 32.9823 13.4492 28.5117 13.3548 22.9098C13.2598 17.3058 17.9966 12.6917 23.9323 12.602Z" fill="white"/>
<path d="M24.018 17.6747C25.6701 17.6494 27.1576 18.3311 28.1616 19.422L32.7933 16.7828C30.8033 14.2064 27.5669 12.5471 23.9315 12.602C17.9958 12.6917 13.2588 17.3058 13.3539 22.9099C13.4484 28.5117 18.3403 32.9824 24.2754 32.8921C30.2141 32.803 34.9497 28.1872 34.8553 22.5848C34.8308 21.1363 34.4804 19.7662 33.8792 18.5291L29.2195 21.185C29.3793 21.6526 29.4702 22.1492 29.4785 22.6661C29.5266 25.4673 27.1594 27.7746 24.1892 27.8201C21.222 27.8649 18.7768 25.6294 18.7287 22.8287C18.6824 20.0264 21.0491 17.719 24.018 17.6747Z" fill="#32CD32"/>
<path d="M24.8169 21.3284L28.162 19.4219C27.1581 18.3311 25.6706 17.6493 24.0185 17.6746C21.0495 17.7189 18.6829 20.0262 18.7292 22.8286C18.7773 25.6292 21.2224 27.8648 24.1897 27.8199C27.1599 27.7745 29.5272 25.4672 29.479 22.666C29.4706 22.1491 29.3797 21.6524 29.2199 21.1849L25.7935 23.1374C25.3599 23.3846 24.7949 23.2629 24.5146 22.8616L24.4634 22.7876C24.1243 22.2955 24.2829 21.6339 24.8169 21.3284Z" fill="white"/>
<path d="M54.9671 9.93859C55.1816 10.0451 55.4399 10.0379 55.6455 9.92016L56.3536 9.51705C56.4605 9.45601 56.5246 9.34495 56.5198 9.22732C56.5187 9.10903 56.4462 9.00196 56.3357 8.94703L53.0596 7.31737L53.4278 7.10832C53.5057 7.0634 53.5639 6.98939 53.5847 6.90426C53.6067 6.82016 53.5907 6.72939 53.5413 6.65538L53.0804 5.95689C52.9794 5.80498 52.7679 5.75784 52.6052 5.84981L52.2256 6.06619L52.146 2.6069C52.1431 2.49139 52.0754 2.38431 51.9673 2.32827C51.8591 2.27224 51.7266 2.2739 51.6209 2.33448L50.9169 2.73583C50.7054 2.85578 50.5789 3.07327 50.5836 3.30594L50.6686 6.95419L50.4821 7.06238L50.4001 3.60299C50.3984 3.48638 50.3289 3.37939 50.2207 3.32271C50.1138 3.26778 49.9807 3.26954 49.8731 3.33002L49.1692 3.73091C48.9571 3.85197 48.8318 4.0689 48.8359 4.30157L48.9221 7.95038L48.7333 8.05801L48.6513 4.59863C48.6501 4.48145 48.5812 4.37549 48.4725 4.3189C48.3662 4.26286 48.2331 4.26397 48.1256 4.32566L47.4229 4.72645C47.2114 4.8464 47.0854 5.06453 47.0902 5.29656L47.1638 8.40388C47.165 8.51984 47.102 8.62812 46.9987 8.6875L44.2381 10.2605L43.0923 10.9147L42.0182 11.5257L37.4091 14.1525L32.794 16.7828L28.1622 19.422L24.8171 21.3285C24.283 21.634 24.1245 22.2955 24.4636 22.7877L24.5148 22.8617C24.7951 23.2631 25.3601 23.3847 25.7937 23.1376L29.2202 21.185L33.8799 18.5291L38.4908 15.9005L43.1148 13.2652L44.1913 12.6526L45.339 11.9984L48.0972 10.4265C48.1987 10.3677 48.3271 10.3638 48.4328 10.417L51.4749 11.93C51.6882 12.0366 51.946 12.0298 52.1527 11.911L52.8608 11.5079C52.9671 11.4474 53.0307 11.3363 53.0283 11.2186C53.0242 11.1003 52.9523 10.9932 52.8436 10.9389L49.5663 9.30985L49.7469 9.20731L53.2221 10.9344C53.4359 11.0415 53.6926 11.0342 53.8999 10.916L54.6074 10.5129C54.7144 10.4506 54.7785 10.3408 54.7761 10.2219C54.7726 10.1048 54.7013 9.99768 54.5908 9.94276L51.314 8.31421L51.4928 8.21112L54.9671 9.93859Z" fill="#32CD32"/>
</svg>
