<svg width="300" height="300" viewBox="0 0 300 300" fill="none" xmlns="http://www.w3.org/2000/svg">
<path d="M170 144L178.1 171.1L169.9 180.7L134.1 198.5L115.3 197.6V58.3999L155.4 52.8999H170L183.7 78.7999L159.1 91.8999L134 115.4L164.8 99.6999L170.6 104.8L169.5 118.5L170 144Z" fill="black"/>
<path d="M195.6 61.4999V82.5999C195.6 83.4999 195 84.3999 194.2 84.6999L134 115.4V98.4999C134 98.3999 134 98.2999 134 98.2999C134 97.3999 134.5 96.6999 135.2 96.2999C135.3 96.1999 135.3 96.1999 135.4 96.1999L168.6 79.2999L168.8 79.1999C169.6 78.7999 170 77.9999 170 77.1999V52.8999L193.7 59.2999C193.8 59.2999 193.8 59.2999 193.8 59.2999C194.9 59.4999 195.6 60.3999 195.6 61.4999Z" fill="white"/>
<path d="M195.6 152.6V173.7C195.6 174.6 195 175.5 194.2 175.8L141 202.9L140.7 203.1C140.6 203.2 140.5 203.2 140.4 203.2C139.8 203.4 139.2 203.6 138.5 203.6C138.2 203.6 137.8 203.6 137.5 203.5C137.3 203.5 137.1 203.4 136.9 203.4L115.2 197.6L168.5 170.4L168.7 170.3C169.5 169.9 169.9 169.2 169.9 168.3V144L193.6 150.4C193.7 150.4 193.7 150.4 193.7 150.4C194.9 150.6 195.6 151.5 195.6 152.6Z" fill="white"/>
<path d="M191.7 109.2V130.3C191.7 131.2 191.1 132.1 190.3 132.4L160.7 147.5C160.6 147.5 160.5 147.6 160.4 147.7C160.1 147.9 159.8 148.3 159.8 148.7V148.8C159.7 149.4 159.3 150 158.8 150.4L158.4 150.6L134.1 163V144C134.1 143.1 134.7 142.3 135.4 141.9L135.5 141.8L145.9 136.5L164.7 126.9L164.9 126.8C165.7 126.4 166.1 125.6 166.1 124.8V100.6L189.8 107C189.9 107 189.9 107 189.9 107C191 107.3 191.7 108.2 191.7 109.2Z" fill="white"/>
<path d="M170 52.8999H94.2L115.3 120V73.8999L170 52.8999Z" fill="#ED1C24"/>
<path d="M55.4 250V253.8H37.2V229.6H54.9V233.4H41.7V239.7H53.4V243.4H41.7V250.1L55.4 250Z" fill="white"/>
<path d="M65.3001 233.4H57.3V229.6H77.8001V233.4H69.8001V253.8H65.3001V233.4Z" fill="white"/>
<path d="M79.0999 241.7C79.0999 234.6 84.5999 229.3 92.0999 229.3C99.5999 229.3 105.1 234.5 105.1 241.7C105.1 248.9 99.5999 254.1 92.0999 254.1C84.5999 254.1 79.0999 248.9 79.0999 241.7ZM100.6 241.7C100.6 236.8 96.9999 233.2 92.0999 233.2C87.1999 233.2 83.5999 236.8 83.5999 241.7C83.5999 246.6 87.1999 250.2 92.0999 250.2C96.9999 250.2 100.6 246.6 100.6 241.7Z" fill="white"/>
<path d="M141.7 253.8V237.8L133.8 251.1H131.8L123.9 238V253.8H119.6V229.6H123.3L132.9 245.6L142.3 229.6H146V253.8H141.7Z" fill="white"/>
<path d="M167.5 243V253.8H163.4V251.6C162.4 253.2 160.4 254.1 157.6 254.1C153.4 254.1 150.7 251.8 150.7 248.6C150.7 245.5 152.8 243.1 158.4 243.1H163.2V242.8C163.2 240.3 161.7 238.8 158.6 238.8C156.5 238.8 154.4 239.5 153 240.6L151.3 237.5C153.3 236 156.1 235.2 159.1 235.2C164.4 235.1 167.5 237.7 167.5 243ZM163.2 248V245.9H158.7C155.8 245.9 155 247 155 248.3C155 249.9 156.3 250.9 158.5 250.9C160.6 250.9 162.4 249.9 163.2 248Z" fill="white"/>
<path d="M183.7 235.1V239.2C183.3 239.1 183 239.1 182.7 239.1C179.4 239.1 177.3 241 177.3 244.8V253.7H173V235.3H177.1V238C178.4 236.1 180.6 235.1 183.7 235.1Z" fill="white"/>
<path d="M194.9 245.9L191.7 248.9V253.8H187.4V228.2H191.7V243.7L200.6 235.4H205.8L198.1 243.1L206.5 253.8H201.3L194.9 245.9Z" fill="white"/>
<path d="M225.8 245.9H211.3C211.8 248.6 214.1 250.3 217.3 250.3C219.4 250.3 221 249.6 222.3 248.3L224.6 251C222.9 253 220.4 254 217.2 254C211 254 207 250 207 244.5C207 239 211 235.1 216.5 235.1C221.9 235.1 225.8 238.9 225.8 244.6C225.9 245 225.9 245.5 225.8 245.9ZM211.3 243.1H221.8C221.4 240.4 219.4 238.6 216.6 238.6C213.8 238.6 211.7 240.4 211.3 243.1Z" fill="white"/>
<path d="M241.1 252.8C240.1 253.6 238.5 254 237 254C233 254 230.6 251.9 230.6 247.8V238.9H227.6V235.5H230.6V231.3H234.9V235.5H239.8V238.9H235V247.7C235 249.5 235.9 250.5 237.6 250.5C238.5 250.5 239.4 250.3 240 249.7L241.1 252.8Z" fill="white"/>
<path d="M242.6 251.9L244.3 248.6C245.9 249.7 248.4 250.4 250.7 250.4C253.4 250.4 254.6 249.6 254.6 248.4C254.6 244.9 243.2 248.2 243.2 240.8C243.2 237.3 246.3 235 251.3 235C253.7 235 256.5 235.6 258.2 236.6L256.5 239.9C254.7 238.9 253 238.5 251.2 238.5C248.6 238.5 247.3 239.4 247.3 240.6C247.3 244.3 258.7 241 258.7 248.2C258.7 251.6 255.5 253.9 250.3 253.9C247.3 254 244.3 253.1 242.6 251.9Z" fill="white"/>
<path d="M162.3 146.8L134.1 161.2V184.3L167.2 165.5L162.3 146.8Z" fill="black"/>
</svg>
