<svg width="416" height="231" viewBox="0 0 416 231" fill="none" xmlns="http://www.w3.org/2000/svg">
<path d="M176.894 0.530254C178.937 0.532123 180.98 0.533545 183.022 0.534542C188.352 0.538327 193.681 0.548123 199.011 0.559246C204.468 0.569546 209.925 0.574058 215.383 0.579082C226.056 0.589749 236.729 0.606777 247.402 0.62791C241.944 6.12909 241.944 6.12909 239.011 8.28416C238.394 8.7421 237.776 9.20004 237.14 9.67186C236.156 10.3926 236.156 10.3926 235.152 11.1279C233.713 12.1949 232.274 13.2626 230.836 14.331C230.099 14.877 229.363 15.4229 228.605 15.9853C225.118 18.5856 221.666 21.2304 218.215 23.8779C216.789 24.9704 215.363 26.0629 213.937 27.1553C213.204 27.7171 212.471 28.279 211.715 28.8579C207.532 32.0587 203.342 35.2493 199.152 38.4404C198.271 39.1117 197.389 39.783 196.481 40.4746C194.685 41.843 192.888 43.2113 191.092 44.5796C187.567 47.2642 184.042 49.9494 180.518 52.6347C178.772 53.9649 177.026 55.295 175.28 56.625C170.891 59.9687 166.503 63.3141 162.117 66.6631C152.603 73.9247 143.062 81.1459 133.469 88.3022C127.739 92.5889 122.089 96.9651 116.537 101.481C112.616 104.628 112.616 104.628 110.402 104.628C115.314 112.102 123.076 114.835 131.398 117.013C136.304 118.017 141.096 118.117 146.09 118.065C147.138 118.056 148.186 118.047 149.265 118.038C179.454 117.371 201.272 98.9709 223.18 80.0964C228.51 75.5107 233.933 71.0478 239.402 66.6279C238.066 63.5162 236.809 61.8968 234.015 59.999C233.331 59.5263 232.646 59.0536 231.941 58.5666C230.839 57.8235 230.839 57.8235 229.715 57.0654C228.18 56.0067 226.646 54.9468 225.113 53.8857C223.943 53.0799 223.943 53.0799 222.749 52.2578C219.073 49.7051 215.452 47.0814 211.84 44.4404C211.191 43.9711 210.542 43.5018 209.874 43.0183C208.364 41.9138 206.88 40.7746 205.402 39.6279C205.402 39.2979 205.402 38.9679 205.402 38.6279C210.824 38.4024 216.243 38.2407 221.668 38.1335C223.506 38.0888 225.344 38.0277 227.181 37.949C239.405 37.4387 247.467 38.4491 257.466 45.7766C260.128 47.8354 260.128 47.8354 262.56 47.5698C264.635 46.5088 266.446 45.3539 268.316 43.9599C269.068 43.4036 269.82 42.8472 270.594 42.2739C271.397 41.6689 272.2 41.0638 273.027 40.4404C273.867 39.8147 274.706 39.1891 275.571 38.5444C282.05 33.6965 288.447 28.7463 294.818 23.758C301.621 18.4343 308.486 13.1867 315.467 8.09794C317.411 6.66009 317.411 6.66008 319.158 5.07051C324.511 0.508684 328.462 -0.201886 335.371 0.0419727C336.752 0.0547072 336.752 0.0547072 338.161 0.067699C341.076 0.101039 343.988 0.176279 346.902 0.25291C348.889 0.283035 350.876 0.310406 352.863 0.334941C357.71 0.400767 362.556 0.504151 367.402 0.62791C364.417 3.68982 361.435 6.51164 358.023 9.08885C357.195 9.71727 356.367 10.3457 355.513 10.9931C354.631 11.6564 353.749 12.3196 352.84 13.0029C351.912 13.7048 350.985 14.4067 350.029 15.1299C343.015 20.4324 335.978 25.7056 328.936 30.9721C322.793 35.5709 316.686 40.2172 310.59 44.8779C302.271 51.2355 293.879 57.4821 285.402 63.6279C286.539 67.0381 287.133 67.4008 290.023 69.3076C290.785 69.8176 291.546 70.3276 292.331 70.853C293.159 71.3975 293.987 71.9419 294.84 72.5029C296.586 73.6727 298.331 74.8447 300.074 76.0185C300.964 76.6173 301.854 77.2161 302.771 77.833C306.769 80.5604 310.681 83.4001 314.59 86.2529C320.74 90.7286 326.944 95.1059 333.225 99.3962C341.161 104.819 349.027 110.342 356.892 115.867C359.409 117.633 361.931 119.393 364.453 121.151C366.019 122.248 367.586 123.344 369.152 124.44C369.885 124.95 370.619 125.46 371.375 125.985C373.068 127.174 374.738 128.397 376.402 129.628C376.402 129.958 376.402 130.288 376.402 130.628C369.805 130.884 363.209 131.058 356.608 131.177C354.369 131.227 352.129 131.295 349.891 131.382C327.746 132.222 327.746 132.222 319.409 124.634C318.057 123.316 316.729 121.972 315.402 120.628C313.842 119.412 312.257 118.226 310.644 117.081C309.568 116.29 309.568 116.29 308.469 115.482C307.384 114.688 307.384 114.688 306.277 113.878C305.483 113.294 304.689 112.711 303.87 112.109C301.382 110.281 298.892 108.454 296.402 106.628C293.109 104.213 289.817 101.796 286.527 99.3779C285.739 98.7998 284.951 98.2218 284.14 97.6262C280.545 94.9805 276.974 92.3145 273.461 89.5615C272.864 89.0945 272.268 88.6276 271.654 88.1465C270.086 86.9114 268.527 85.6666 266.969 84.4209C263.947 82.1339 263.947 82.1339 260.402 81.6279C258.231 83.1576 256.404 84.6537 254.465 86.4404C253.296 87.4714 252.125 88.5 250.953 89.5263C250.063 90.3109 250.063 90.3109 249.155 91.1113C244.434 95.1969 239.411 98.9062 234.402 102.628C233.768 103.104 233.134 103.58 232.481 104.07C221.682 112.131 210.522 118.746 198.402 124.628C197.346 125.153 196.291 125.677 195.203 126.218C176.867 134.631 152.728 137.501 133.472 130.89C122.208 126.261 112.769 120.534 104.402 111.628C101.483 112.991 99.0173 114.56 96.4685 116.526C95.737 117.088 95.0054 117.65 94.2517 118.229C93.1196 119.107 93.1196 119.107 91.9646 120.003C90.8383 120.869 90.8383 120.869 89.6892 121.753C85.3133 125.081 85.3133 125.081 81.28 128.801C77.0214 131.504 73.2295 131.127 68.2888 131.019C67.3193 131.013 66.3497 131.007 65.3508 131.001C62.2632 130.979 59.1768 130.929 56.0896 130.878C53.9926 130.858 51.8956 130.84 49.7986 130.823C44.666 130.779 39.5342 130.71 34.4021 130.628C37.4507 127.497 40.5123 124.633 43.9919 121.991C44.8516 121.337 45.7112 120.682 46.5969 120.008C47.9545 118.984 47.9545 118.984 49.3396 117.94C50.2782 117.229 51.2168 116.518 52.1838 115.785C58.3954 111.096 64.6678 106.509 71.0271 102.022C74.9799 99.232 78.8785 96.3683 82.7771 93.5029C83.4389 93.0165 84.1006 92.5301 84.7825 92.029C86.3229 90.896 87.8626 89.7621 89.4021 88.6279C89.2621 88.0482 89.1221 87.4684 88.9778 86.8711C85.1214 69.57 85.4065 50.1237 94.0896 34.3779C103.452 20.0029 116.048 9.94405 132.152 4.31541C132.854 4.06082 133.555 3.80623 134.278 3.54393C147.666 -0.87698 162.966 0.49244 176.894 0.530254Z" fill="#FECF04"/>
<path d="M274.965 171.315C281.49 175.26 285.879 181.644 288.09 188.878C288.57 193.102 288.402 197.377 288.402 201.628C273.882 201.628 259.362 201.628 244.402 201.628C245.972 207.811 245.972 207.811 248.402 213.628C253.608 216.235 258.701 216.195 264.402 215.628C267.276 214.37 268.779 213.454 270.648 210.976C272.402 209.628 272.402 209.628 275.25 209.737C276.311 209.949 277.371 210.16 278.465 210.378C279.528 210.579 280.591 210.78 281.687 210.987C284.402 211.628 284.402 211.628 286.402 212.628C285.316 218.646 280.995 222.537 276.383 226.257C268.436 231.142 258.403 230.88 249.402 229.628C245.592 228.473 242.624 226.94 239.402 224.628C238.495 224.071 237.587 223.514 236.652 222.94C228.582 214.646 227.055 206.085 227.195 194.874C227.74 186.333 231.196 179.536 237.402 173.628C248.747 165.337 262.485 165.404 274.965 171.315Z" fill="#060606"/>
<path d="M48.906 171.854C54.6494 175.935 58.4495 180.794 60.4021 187.628C60.4021 192.248 60.4021 196.868 60.4021 201.628C46.2121 201.628 32.0221 201.628 17.4021 201.628C19.5251 210.749 19.5251 210.749 22.3396 214.253C27.2709 216.467 32.0952 216.36 37.4021 215.628C40.7125 214.273 42.8819 212.148 45.4021 209.628C47.6443 209.835 47.6443 209.835 50.2771 210.44C51.1408 210.632 52.0045 210.825 52.8943 211.022C55.0665 211.547 57.2361 212.079 59.4021 212.628C58.0986 218.566 55.1678 222.062 50.4021 225.628C41.4635 230.708 30.2577 231.278 20.367 228.897C11.0028 225.437 5.78844 219.415 1.40214 210.628C0.149341 206.384 0.143505 202.273 0.0896431 197.878C0.0606392 197.104 0.0316353 196.331 0.00175244 195.534C-0.0873532 187.364 3.22736 181.235 8.6248 175.233C19.6561 165.269 36.3489 164.596 48.906 171.854Z" fill="#060606"/>
<path d="M197.89 168.573C203.509 171.938 207.484 176.302 209.402 182.628C209.675 186.146 209.635 189.652 209.597 193.179C209.595 194.193 209.592 195.207 209.589 196.251C209.578 199.481 209.553 202.711 209.527 205.94C209.517 208.134 209.508 210.327 209.5 212.521C209.478 217.89 209.443 223.259 209.402 228.628C203.792 228.628 198.182 228.628 192.402 228.628C192.376 225.871 192.351 223.113 192.324 220.272C192.286 217.595 192.24 214.918 192.195 212.24C192.166 210.383 192.145 208.525 192.131 206.668C192.11 203.994 192.063 201.321 192.011 198.647C192.01 197.82 192.009 196.993 192.008 196.141C191.907 192.133 191.686 190.081 189.51 186.606C187.021 184.271 185.961 183.95 182.59 184.003C181.779 183.99 180.968 183.977 180.133 183.964C176.159 184.93 173.194 186.608 170.402 189.628C169.398 192.636 169.445 195.497 169.5 198.647C169.481 199.935 169.481 199.935 169.463 201.249C169.431 203.981 169.447 206.709 169.465 209.44C169.451 211.297 169.435 213.153 169.416 215.009C169.369 219.55 169.387 224.085 169.402 228.628C163.462 228.628 157.522 228.628 151.402 228.628C151.402 208.828 151.402 189.028 151.402 168.628C157.342 168.628 163.282 168.628 169.402 168.628C169.732 171.268 170.062 173.908 170.402 176.628C170.933 176.146 171.464 175.664 172.011 175.167C172.718 174.535 173.424 173.904 174.152 173.253C174.848 172.626 175.544 172 176.261 171.355C182.339 166.452 190.574 165.794 197.89 168.573Z" fill="#040404"/>
<path d="M70.4021 168.628C87.0455 166.243 87.0455 166.243 92.429 170.068C96.0775 173.881 101.402 180.182 101.402 185.628C102.062 185.628 102.722 185.628 103.402 185.628C103.661 184.933 103.92 184.238 104.187 183.522C106.521 177.961 109.116 171.94 114.402 168.628C120.62 167.139 127.116 167.937 133.402 168.628C132.096 171.398 130.643 173.799 128.793 176.237C128.031 177.247 128.031 177.247 127.254 178.276C126.725 178.97 126.197 179.663 125.652 180.378C124.883 181.395 124.883 181.395 124.097 182.433C123.328 183.45 123.328 183.45 122.543 184.487C122.033 185.169 121.523 185.85 120.998 186.552C119.901 187.979 118.767 189.378 117.603 190.751C116.029 192.659 114.608 194.468 113.402 196.628C113.946 201.241 117.64 204.721 120.527 208.253C121.517 209.489 122.505 210.726 123.492 211.964C123.982 212.577 124.471 213.19 124.976 213.822C127.067 216.47 129.087 219.162 131.09 221.878C131.733 222.749 132.376 223.621 133.039 224.518C134.402 226.628 134.402 226.628 134.402 228.628C120.825 230.141 120.825 230.141 114.402 228.628C111.185 225.891 109.746 223.529 107.937 219.741C106.241 216.302 104.218 214.196 101.402 211.628C99.5878 214.085 97.7756 216.543 95.9646 219.003C95.4483 219.702 94.9321 220.4 94.4001 221.12C93.9071 221.79 93.414 222.461 92.906 223.151C92.4504 223.769 91.9948 224.387 91.5254 225.024C90.3343 226.641 90.3343 226.641 89.4021 228.628C82.8021 228.628 76.2021 228.628 69.4021 228.628C70.974 225.484 72.348 223.249 74.4841 220.546C75.0868 219.778 75.6894 219.011 76.3103 218.22C77.2529 217.03 77.2529 217.03 78.2146 215.815C80.0526 213.486 81.8865 211.154 83.7053 208.809C84.7883 207.417 85.8857 206.036 87.0012 204.669C89.7357 201.318 89.7357 201.318 90.2129 197.184C89.3288 194.397 88.2549 192.747 86.4177 190.483C85.8119 189.723 85.206 188.964 84.5818 188.181C83.945 187.4 83.3082 186.62 82.6521 185.815C78.1685 180.267 74.0643 174.757 70.4021 168.628Z" fill="#070707"/>
<path d="M161.402 23.3779C163.16 23.3981 164.918 23.4163 166.676 23.4326C170.918 23.476 175.16 23.5447 179.402 23.6279C177.247 25.9135 175.021 27.6714 172.41 29.4131C171.239 30.2012 171.239 30.2012 170.044 31.0051C169.214 31.5613 168.383 32.1174 167.527 32.6904C160.722 37.292 154.152 42.0448 147.687 47.1123C143.258 50.5469 138.653 53.7324 134.063 56.9475C128.687 60.7152 123.347 64.5302 118.027 68.3779C117.275 68.9213 116.522 69.4646 115.747 70.0244C112.45 72.4083 109.161 74.8001 105.894 77.2256C104.907 77.9565 103.92 78.6874 102.902 79.4404C102.067 80.0656 101.232 80.6908 100.371 81.335C98.4022 82.6279 98.4022 82.6279 96.4022 82.6279C94.572 78.9677 95.1743 74.6572 95.1522 70.6279C95.1315 69.7192 95.1109 68.8104 95.0897 67.874C95.0183 55.3399 98.931 47.3921 107.472 38.4639C122.184 24.3849 142.119 22.9877 161.402 23.3779Z" fill="#FEFEFA"/>
<path d="M350.402 172.628C350.092 174.233 349.779 175.837 349.465 177.44C349.291 178.334 349.117 179.227 348.937 180.147C348.402 182.628 348.402 182.628 347.402 185.628C345.798 185.149 344.194 184.67 342.59 184.19C341.696 183.924 340.803 183.657 339.883 183.382C338.048 182.824 336.222 182.234 334.402 181.628C332.884 181.536 331.361 181.498 329.84 181.503C328.662 181.499 328.662 181.499 327.461 181.495C325.338 181.498 325.338 181.498 323.402 182.628C323.575 185.074 323.575 185.074 324.402 187.628C326.23 188.931 326.23 188.931 328.594 189.62C329.457 189.933 330.32 190.247 331.209 190.569C332.573 191.031 332.573 191.031 333.965 191.503C341.388 194.03 349.665 197.153 353.402 204.628C354.121 211.299 354.292 217.417 350.109 222.936C344.069 228.921 337.62 230.084 329.402 230.128C320.363 229.968 311.379 228.87 304.402 222.628C303.279 218.135 305.722 213.759 307.402 209.628C310.697 210.376 313.798 211.456 316.965 212.628C323.3 215.02 323.3 215.02 329.965 215.753C331.142 215.757 331.142 215.757 332.344 215.761C334.467 215.758 334.467 215.758 336.402 214.628C336.402 212.978 336.402 211.328 336.402 209.628C335.858 209.437 335.314 209.246 334.753 209.049C332.258 208.167 329.768 207.273 327.277 206.378C326.421 206.078 325.565 205.777 324.683 205.468C318.205 203.126 312.157 200.755 308.402 194.628C306.619 189.277 306.129 182.723 308.308 177.425C318.193 162.851 336.723 166.069 350.402 172.628Z" fill="#060606"/>
<path d="M412.402 172.628C412.287 174.045 412.16 175.462 412.027 176.878C411.957 177.667 411.888 178.456 411.816 179.269C411.387 181.714 410.616 183.476 409.402 185.628C407.798 185.149 406.194 184.67 404.59 184.19C403.696 183.924 402.803 183.657 401.883 183.382C400.047 182.824 398.222 182.234 396.402 181.628C394.883 181.536 393.361 181.498 391.84 181.503C390.662 181.499 390.662 181.499 389.461 181.495C387.338 181.498 387.338 181.498 385.402 182.628C385.572 185.072 385.572 185.072 386.402 187.628C388.245 188.962 388.245 188.962 390.629 189.69C391.496 190.013 392.364 190.335 393.258 190.667C394.172 190.984 395.085 191.301 396.027 191.628C410.581 196.809 410.581 196.809 414.816 202.542C416.526 208.63 416.387 215.469 413.777 221.19C407.667 227.462 400.929 229.827 392.299 230.008C391.236 230.005 391.236 230.005 390.152 230.003C389.411 230.002 388.669 230.001 387.905 230C379.746 229.826 372.829 227.761 366.402 222.628C366.899 217.655 367.955 213.99 370.402 209.628C372.916 210.628 375.422 211.636 377.91 212.698C384.391 215.31 390.397 216.69 397.402 215.628C398.062 214.968 398.722 214.308 399.402 213.628C399.307 211.58 399.307 211.58 398.402 209.628C395.127 207.445 392.582 206.823 388.777 205.878C381.263 203.78 375.235 201.233 370.34 195.003C368.752 189.289 368.087 183.135 370.211 177.472C379.524 162.777 399.11 165.864 412.402 172.628Z" fill="#060606"/>
<path d="M36.4021 179.628C40.3588 181.606 43.1668 183.778 45.4021 187.628C45.4021 188.618 45.4021 189.608 45.4021 190.628C36.4921 190.628 27.5821 190.628 18.4021 190.628C19.6119 183.369 19.6119 183.369 23.3943 180.546C27.5803 178.632 31.94 178.904 36.4021 179.628Z" fill="#F7F7F7"/>
<path d="M263.402 179.628C267.561 181.346 269.897 183.916 272.402 187.628C272.402 188.618 272.402 189.608 272.402 190.628C263.492 190.628 254.582 190.628 245.402 190.628C246.483 185.224 247.181 184.042 251.234 180.8C255.189 178.662 259.059 178.889 263.402 179.628Z" fill="#F9F9F9"/>
<path d="M392.027 180.565C393.253 180.579 393.253 180.579 394.504 180.593C395.443 180.61 395.443 180.61 396.402 180.628C396.402 180.958 396.402 181.288 396.402 181.628C395.165 181.71 393.927 181.793 392.652 181.878C389.413 182.263 388.523 182.528 385.902 184.69C385.16 185.65 385.16 185.65 384.402 186.628C384.777 184.19 384.777 184.19 385.402 181.628C387.808 180.425 389.352 180.527 392.027 180.565Z" fill="#B6B6B6"/>
</svg>
