<?xml version="1.0" encoding="UTF-8"?>
<svg width="487px" height="174px" viewBox="0 0 487 174" version="1.1" xmlns="http://www.w3.org/2000/svg" xmlns:xlink="http://www.w3.org/1999/xlink">
    <!-- Generator: Sketch 49.3 (51167) - http://www.bohemiancoding.com/sketch -->
    <title>ic_iq_logo</title>
    <desc>Created with Sketch.</desc>
    <defs></defs>
    <g id="WEB-GIU" stroke="none" stroke-width="1" fill="none" fill-rule="evenodd">
        <g id="NO-ORIGINAL">
            <g id="Group-7">
                <rect id="ic_setka" fill-opacity="0" fill="#D8D8D8" x="0" y="0" width="487" height="174"></rect>
                <g id="Group-5" transform="translate(34.000000, 42.000000)">
                    <path d="M121.32,21.12 C120.413329,21.12 119.546671,20.9466684 118.72,20.6 C117.893329,20.2533316 117.173336,19.7733364 116.56,19.16 C115.946664,18.5466636 115.466668,17.840004 115.12,17.04 C114.773332,16.239996 114.6,15.3600048 114.6,14.4 C114.6,13.4399952 114.773332,12.560004 115.12,11.76 C115.466668,10.959996 115.946664,10.2533364 116.56,9.64 C117.173336,9.0266636 117.893329,8.5466684 118.72,8.2 C119.546671,7.8533316 120.413329,7.68 121.32,7.68 C123.186676,7.68 124.78666,8.3333268 126.12,9.64 C127.45334,10.9466732 128.12,12.533324 128.12,14.4 C128.12,16.266676 127.45334,17.8533268 126.12,19.16 C124.78666,20.4666732 123.186676,21.12 121.32,21.12 Z M116.12,66 L116.12,26.8 L126.6,26.8 L126.6,66 L116.12,66 Z M162.86,66.88 L162.86,61.28 C161.899995,62.9333416 160.406677,64.3466608 158.38,65.52 C156.353323,66.6933392 153.846682,67.28 150.86,67.28 C148.353321,67.28 145.966678,66.7600052 143.7,65.72 C141.433322,64.6799948 139.433342,63.2400092 137.7,61.4 C135.966658,59.5599908 134.593338,57.3600128 133.58,54.8 C132.566662,52.2399872 132.06,49.4400152 132.06,46.4 C132.06,43.3599848 132.566662,40.5600128 133.58,38 C134.593338,35.4399872 135.966658,33.2400092 137.7,31.4 C139.433342,29.5599908 141.433322,28.1200052 143.7,27.08 C145.966678,26.0399948 148.353321,25.52 150.86,25.52 C153.846682,25.52 156.353323,26.1066608 158.38,27.28 C160.406677,28.4533392 161.899995,29.8666584 162.86,31.52 L162.860001,26.8 L173.34,26.8 L173.34,83.28 L162.86,83.28 L162.86,66.88 Z M153.02,57.6 C154.406674,57.6 155.72666,57.3466692 156.98,56.84 C158.23334,56.3333308 159.339995,55.6000048 160.3,54.64 C161.260005,53.6799952 162.03333,52.5066736 162.62,51.12 C163.20667,49.7333264 163.5,48.1600088 163.5,46.4 C163.5,44.6399912 163.20667,43.0666736 162.62,41.68 C162.03333,40.2933264 161.260005,39.1200048 160.3,38.16 C159.339995,37.1999952 158.23334,36.4666692 156.98,35.96 C155.72666,35.4533308 154.406674,35.2 153.02,35.2 C151.633326,35.2 150.31334,35.466664 149.06,36 C147.80666,36.533336 146.700005,37.2799952 145.74,38.24 C144.779995,39.2000048 144.00667,40.3733264 143.42,41.76 C142.83333,43.1466736 142.54,44.6933248 142.54,46.4 C142.54,48.1066752 142.83333,49.6533264 143.42,51.04 C144.00667,52.4266736 144.779995,53.5999952 145.74,54.56 C146.700005,55.5200048 147.80666,56.266664 149.06,56.8 C150.31334,57.333336 151.633326,57.6 153.02,57.6 Z M215.14,25.52 C218.180015,25.52 220.966654,26.0399948 223.5,27.08 C226.033346,28.1200052 228.219991,29.5599908 230.06,31.4 C231.900009,33.2400092 233.339995,35.4399872 234.38,38 C235.420005,40.5600128 235.94,43.3599848 235.94,46.4 C235.94,49.4400152 235.420005,52.2399872 234.38,54.8 C233.339995,57.3600128 231.900009,59.5599908 230.06,61.4 C228.219991,63.2400092 226.033346,64.6799948 223.5,65.72 C220.966654,66.7600052 218.180015,67.28 215.14,67.28 C212.099985,67.28 209.313346,66.7600052 206.78,65.72 C204.246654,64.6799948 202.060009,63.2400092 200.22,61.4 C198.379991,59.5599908 196.940005,57.3600128 195.9,54.8 C194.859995,52.2399872 194.34,49.4400152 194.34,46.4 C194.34,43.3599848 194.859995,40.5600128 195.9,38 C196.940005,35.4399872 198.379991,33.2400092 200.22,31.4 C202.060009,29.5599908 204.246654,28.1200052 206.78,27.08 C209.313346,26.0399948 212.099985,25.52 215.14,25.52 Z M215.14,57.6 C216.47334,57.6 217.76666,57.3466692 219.02,56.84 C220.27334,56.3333308 221.379995,55.6000048 222.34,54.64 C223.300005,53.6799952 224.059997,52.5066736 224.62,51.12 C225.180003,49.7333264 225.46,48.1600088 225.46,46.4 C225.46,44.6399912 225.180003,43.0666736 224.62,41.68 C224.059997,40.2933264 223.300005,39.1200048 222.34,38.16 C221.379995,37.1999952 220.27334,36.4666692 219.02,35.96 C217.76666,35.4533308 216.47334,35.2 215.14,35.2 C213.753326,35.2 212.446673,35.4533308 211.22,35.96 C209.993327,36.4666692 208.900005,37.1999952 207.94,38.16 C206.979995,39.1200048 206.220003,40.2933264 205.66,41.68 C205.099997,43.0666736 204.82,44.6399912 204.82,46.4 C204.82,48.1600088 205.099997,49.7333264 205.66,51.12 C206.220003,52.5066736 206.979995,53.6799952 207.94,54.64 C208.900005,55.6000048 209.993327,56.3333308 211.22,56.84 C212.446673,57.3466692 213.753326,57.6 215.14,57.6 Z M240.44,26.8 L250.920013,26.8 L250.920013,31.52 C251.880018,29.8666584 253.373323,28.4533392 255.4,27.28 C257.426677,26.1066608 259.933318,25.52 262.92,25.52 C265.426679,25.52 267.813322,26.0399948 270.08,27.08 C272.346678,28.1200052 274.346658,29.5599908 276.08,31.4 C277.813342,33.2400092 279.186662,35.4399872 280.2,38 C281.213338,40.5600128 281.72,43.3599848 281.72,46.4 C281.72,49.4400152 281.213338,52.2399872 280.2,54.8 C279.186662,57.3600128 277.813342,59.5599908 276.08,61.4 C274.346658,63.2400092 272.346678,64.6799948 270.08,65.72 C267.813322,66.7600052 265.426679,67.28 262.92,67.28 C259.933318,67.28 257.426677,66.6933392 255.4,65.52 C253.373323,64.3466608 251.880005,62.9333416 250.92,61.28 L250.92,66.88 L250.92,83.28 L240.44,83.28 L240.44,26.8 Z M260.76,57.6 C262.146674,57.6 263.46666,57.333336 264.72,56.8 C265.97334,56.266664 267.079995,55.5200048 268.04,54.56 C269.000005,53.5999952 269.77333,52.4266736 270.36,51.04 C270.94667,49.6533264 271.24,48.1066752 271.24,46.4 C271.24,44.6933248 270.94667,43.1466736 270.36,41.76 C269.77333,40.3733264 269.000005,39.2000048 268.04,38.24 C267.079995,37.2799952 265.97334,36.533336 264.72,36 C263.46666,35.466664 262.146674,35.2 260.76,35.2 C259.373326,35.2 258.05334,35.4533308 256.8,35.96 C255.54666,36.4666692 254.440005,37.1999952 253.48,38.16 C252.519995,39.1200048 251.74667,40.2933264 251.16,41.68 C250.57333,43.0666736 250.28,44.6399912 250.28,46.4 C250.28,48.1600088 250.57333,49.7333264 251.16,51.12 C251.74667,52.5066736 252.519995,53.6799952 253.48,54.64 C254.440005,55.6000048 255.54666,56.3333308 256.8,56.84 C258.05334,57.3466692 259.373326,57.6 260.76,57.6 Z M289.66,35.76 L282.78,35.76 L282.78,26.8 L289.66,26.8 L289.66,14.8 L300.14,14.8 L300.14,26.8 L309.74,26.8 L309.74,35.76 L300.14,35.76 L300.14,50.96 C300.14,51.8666712 300.233332,52.7066628 300.42,53.48 C300.606668,54.2533372 300.966664,54.906664 301.5,55.44 C302.24667,56.2933376 303.313326,56.72 304.7,56.72 C305.606671,56.72 306.326664,56.6266676 306.86,56.44 C307.393336,56.2533324 307.899998,56.0000016 308.38,55.68 L311.34,64.88 C310.113327,65.4666696 308.79334,65.9066652 307.38,66.2 C305.96666,66.4933348 304.406675,66.64 302.7,66.64 C300.726657,66.64 298.953341,66.3333364 297.38,65.72 C295.806659,65.1066636 294.486672,64.266672 293.42,63.2 C290.913321,60.799988 289.66,57.3866888 289.66,52.96 L289.66,35.76 Z M322.16,21.12 C321.253329,21.12 320.386671,20.9466684 319.56,20.6 C318.733329,20.2533316 318.013336,19.7733364 317.4,19.16 C316.786664,18.5466636 316.306668,17.840004 315.96,17.04 C315.613332,16.239996 315.44,15.3600048 315.44,14.4 C315.44,13.4399952 315.613332,12.560004 315.96,11.76 C316.306668,10.959996 316.786664,10.2533364 317.4,9.64 C318.013336,9.0266636 318.733329,8.5466684 319.56,8.2 C320.386671,7.8533316 321.253329,7.68 322.16,7.68 C324.026676,7.68 325.62666,8.3333268 326.96,9.64 C328.29334,10.9466732 328.96,12.533324 328.96,14.4 C328.96,16.266676 328.29334,17.8533268 326.96,19.16 C325.62666,20.4666732 324.026676,21.12 322.16,21.12 Z M316.96,66 L316.96,26.8 L327.44,26.8 L327.44,66 L316.96,66 Z M353.7,25.52 C356.740015,25.52 359.526654,26.0399948 362.06,27.08 C364.593346,28.1200052 366.779991,29.5599908 368.62,31.4 C370.460009,33.2400092 371.899995,35.4399872 372.94,38 C373.980005,40.5600128 374.5,43.3599848 374.5,46.4 C374.5,49.4400152 373.980005,52.2399872 372.94,54.8 C371.899995,57.3600128 370.460009,59.5599908 368.62,61.4 C366.779991,63.2400092 364.593346,64.6799948 362.06,65.72 C359.526654,66.7600052 356.740015,67.28 353.7,67.28 C350.659985,67.28 347.873346,66.7600052 345.34,65.72 C342.806654,64.6799948 340.620009,63.2400092 338.78,61.4 C336.939991,59.5599908 335.500005,57.3600128 334.46,54.8 C333.419995,52.2399872 332.9,49.4400152 332.9,46.4 C332.9,43.3599848 333.419995,40.5600128 334.46,38 C335.500005,35.4399872 336.939991,33.2400092 338.78,31.4 C340.620009,29.5599908 342.806654,28.1200052 345.34,27.08 C347.873346,26.0399948 350.659985,25.52 353.7,25.52 Z M353.7,57.6 C355.03334,57.6 356.32666,57.3466692 357.58,56.84 C358.83334,56.3333308 359.939995,55.6000048 360.9,54.64 C361.860005,53.6799952 362.619997,52.5066736 363.18,51.12 C363.740003,49.7333264 364.02,48.1600088 364.02,46.4 C364.02,44.6399912 363.740003,43.0666736 363.18,41.68 C362.619997,40.2933264 361.860005,39.1200048 360.9,38.16 C359.939995,37.1999952 358.83334,36.4666692 357.58,35.96 C356.32666,35.4533308 355.03334,35.2 353.7,35.2 C352.313326,35.2 351.006673,35.4533308 349.78,35.96 C348.553327,36.4666692 347.460005,37.1999952 346.5,38.16 C345.539995,39.1200048 344.780003,40.2933264 344.22,41.68 C343.659997,43.0666736 343.38,44.6399912 343.38,46.4 C343.38,48.1600088 343.659997,49.7333264 344.22,51.12 C344.780003,52.5066736 345.539995,53.6799952 346.5,54.64 C347.460005,55.6000048 348.553327,56.3333308 349.78,56.84 C351.006673,57.3466692 352.313326,57.6 353.7,57.6 Z M389.399994,31.92 C390.626667,29.9466568 392.27999,28.3866724 394.36,27.24 C396.44001,26.0933276 398.81332,25.52 401.48,25.52 C403.933346,25.52 406.093324,25.919996 407.96,26.72 C409.826676,27.520004 411.359994,28.653326 412.56,30.12 C413.760006,31.586674 414.666664,33.3466564 415.28,35.4 C415.893336,37.4533436 416.2,39.7333208 416.2,42.24 L416.2,66 L405.72,66 L405.72,43.52 C405.72,40.6933192 405.09334,38.6000068 403.84,37.24 C402.58666,35.8799932 400.760012,35.2 398.36,35.2 C396.919993,35.2 395.653339,35.5066636 394.56,36.12 C393.466661,36.7333364 392.533337,37.5599948 391.76,38.6 C390.986663,39.6400052 390.400002,40.8666596 390,42.28 C389.599998,43.6933404 389.4,45.199992 389.4,46.8 L389.4,66 L378.92,66 L378.92,26.8 L389.399994,26.8 L389.399994,31.92 Z" id="iq-option" fill="#000000"></path>
                    <g id="Group-6">
                        <path d="M43.5,87 C19.4756134,87 0,67.5243866 0,43.5 C0,19.4756134 19.4756134,0 43.5,0 C67.5243866,0 87,19.4756134 87,43.5 C87,67.5243866 67.5243866,87 43.5,87 Z" id="Oval" fill="#FF7700"></path>
                        <path d="M36.5795455,32.0977273 L36.5795455,61.8227273 C36.5795455,64.8075753 39.0139971,67.2272727 42.0170455,67.2272727 C45.0200938,67.2272727 47.4545455,64.8075753 47.4545455,61.8227273 L47.4545455,32.0977273 C47.4545455,29.1128792 45.0200938,26.6931818 42.0170455,26.6931818 C39.0139971,26.6931818 36.5795455,29.1128792 36.5795455,32.0977273 Z" id="Rectangle" fill="#FFFFFF"></path>
                        <path d="M18.7840909,42.0280303 L18.7840909,61.7787879 C18.7840909,64.787903 21.2185426,67.2272727 24.2215909,67.2272727 C27.2246392,67.2272727 29.6590909,64.787903 29.6590909,61.7787879 L29.6590909,42.0280303 C29.6590909,39.0189152 27.2246392,36.5795455 24.2215909,36.5795455 C21.2185426,36.5795455 18.7840909,39.0189152 18.7840909,42.0280303 Z" id="Rectangle" fill="#FFFFFF"></path>
                        <path d="M54.375,22.2576781 L54.375,61.7764128 C54.375,64.7868396 56.8094517,67.2272727 59.8125,67.2272727 C62.8155483,67.2272727 65.25,64.7868396 65.25,61.7764128 L65.25,22.2576781 C65.25,19.2472513 62.8155483,16.8068182 59.8125,16.8068182 C56.8094517,16.8068182 54.375,19.2472513 54.375,22.2576781 Z" id="Rectangle" fill="#FFFFFF"></path>
                    </g>
                </g>
            </g>
        </g>
    </g>
</svg>