<?xml version="1.0" encoding="utf-8"?>
<!-- Generator: Adobe Illustrator 27.5.0, SVG Export Plug-In . SVG Version: 6.00 Build 0)  -->
<svg version="1.1" id="Layer_1" xmlns="http://www.w3.org/2000/svg" xmlns:xlink="http://www.w3.org/1999/xlink" x="0px" y="0px"
	 viewBox="0 0 746.74 224" style="enable-background:new 0 0 746.74 224;" xml:space="preserve">
<style type="text/css">
	.st0{fill:#777777;}
</style>
<g>
	<path class="st0" d="M219.02,0H4.98C3.66,0,2.39,0.52,1.46,1.46C0.52,2.39,0,3.66,0,4.98v214.04c0,1.32,0.52,2.59,1.46,3.52
		c0.93,0.93,2.2,1.46,3.52,1.46h214.04c1.32,0,2.59-0.52,3.52-1.46c0.93-0.93,1.46-2.2,1.46-3.52V4.98c0-1.32-0.52-2.59-1.46-3.52
		C221.6,0.52,220.34,0,219.02,0z M149.33,144.35c0,1.32-0.52,2.59-1.46,3.52c-0.93,0.93-2.2,1.46-3.52,1.46H79.64
		c-1.32,0-2.59-0.53-3.52-1.46c-0.93-0.93-1.46-2.2-1.46-3.52V79.64c0-1.32,0.52-2.59,1.46-3.52c0.93-0.93,2.2-1.46,3.52-1.46h64.71
		c1.32,0,2.59,0.52,3.52,1.46c0.93,0.93,1.46,2.2,1.46,3.52V144.35z"/>
	<path class="st0" d="M667.13,74.67h-64.71c-2.75,0-4.98,2.23-4.98,4.98v64.71c0,2.75,2.23,4.98,4.98,4.98h64.71
		c2.75,0,4.98-2.23,4.98-4.98V79.65C672.11,76.9,669.88,74.67,667.13,74.67z"/>
	<path class="st0" d="M592.43,0.01h-64.71c-2.75,0-4.98,2.23-4.98,4.98v64.71c0,2.75,2.23,4.98,4.98,4.98h64.71
		c2.75,0,4.98-2.23,4.98-4.98V4.98C597.41,2.23,595.18,0.01,592.43,0.01z"/>
	<path class="st0" d="M741.76,0.01h-64.71c-2.75,0-4.98,2.23-4.98,4.98v64.71c0,2.75,2.23,4.98,4.98,4.98h64.71
		c2.75,0,4.98-2.23,4.98-4.98V4.98C746.74,2.23,744.51,0.01,741.76,0.01z"/>
	<path class="st0" d="M592.43,149.33h-64.71c-2.75,0-4.98,2.23-4.98,4.98v64.71c0,2.75,2.23,4.98,4.98,4.98h64.71
		c2.75,0,4.98-2.23,4.98-4.98v-64.71C597.41,151.56,595.18,149.33,592.43,149.33z"/>
	<path class="st0" d="M741.76,149.33h-64.71c-2.75,0-4.98,2.23-4.98,4.98v64.71c0,2.75,2.23,4.98,4.98,4.98h64.71
		c2.75,0,4.98-2.23,4.98-4.98v-64.71C746.74,151.56,744.51,149.33,741.76,149.33z"/>
	<path class="st0" d="M480.34,0.01h-64.71c-2.75,0-4.98,2.23-4.98,4.98v64.71c0,2.75,2.23,4.98,4.98,4.98h64.71
		c2.75,0,4.98-2.23,4.98-4.98V4.98C485.32,2.23,483.09,0.01,480.34,0.01z"/>
	<path class="st0" d="M480.34,149.33h-64.71c-2.75,0-4.98,2.23-4.98,4.98v64.71c0,2.75,2.23,4.98,4.98,4.98h64.71
		c2.75,0,4.98-2.23,4.98-4.98v-64.71C485.32,151.56,483.09,149.33,480.34,149.33z"/>
	<path class="st0" d="M410.66,79.59c0-1.32-0.53-2.59-1.46-3.52c-0.93-0.93-2.2-1.46-3.52-1.46h-69.69V4.98
		c0-1.32-0.52-2.59-1.46-3.52C333.6,0.52,332.33,0,331.01,0H266.3c-1.32,0-2.59,0.52-3.52,1.46c-0.93,0.93-1.46,2.2-1.46,3.52
		v213.93c0,1.32,0.52,2.59,1.46,3.52c0.93,0.93,2.2,1.46,3.52,1.46h64.71c1.32,0,2.59-0.52,3.52-1.46c0.93-0.93,1.46-2.2,1.46-3.52
		v-69.63h69.69c1.32,0,2.59-0.52,3.52-1.46c0.93-0.93,1.46-2.2,1.46-3.52V79.59z"/>
</g>
</svg>
