<svg width="81" height="26" viewBox="0 0 81 26" fill="none" xmlns="http://www.w3.org/2000/svg">
<path d="M5.35828 4.36645C5.96975 1.95495 8.48225 0 10.9701 0H14.8576L9.49931 21.1318C8.88783 23.5433 6.37534 25.4981 3.8875 25.4981H0L5.35828 4.36645Z" fill="#024ABC"/>
<path d="M15.9989 4.36645C16.6104 1.95495 19.1229 0 21.6107 0H25.4982L23.5628 7.63265C22.9513 10.0442 20.4389 11.9992 17.951 11.9992H14.0635L15.9989 4.36645Z" fill="#024ABC"/>
<path d="M28.3359 8.44312H31.532C31.9776 8.44312 32.3989 8.48341 32.7958 8.56401C33.1928 8.64461 33.5371 8.78571 33.8288 8.98731C34.1286 9.18081 34.3635 9.44691 34.5336 9.78551C34.7119 10.1161 34.801 10.5353 34.801 11.0433C34.801 11.5432 34.72 11.9625 34.5579 12.3011C34.3959 12.6397 34.1731 12.9098 33.8896 13.1114C33.606 13.313 33.2698 13.4581 32.8809 13.5468C32.492 13.6274 32.0707 13.6677 31.6171 13.6677H30.2317V17.0057H28.3359V8.44312ZM30.2317 12.0713H31.4955C31.6657 12.0713 31.8277 12.0552 31.9816 12.0229C32.1437 11.9907 32.2854 11.9383 32.407 11.8657C32.5366 11.7851 32.6379 11.6803 32.7108 11.5513C32.7918 11.4142 32.8323 11.2449 32.8323 11.0433C32.8323 10.8256 32.7796 10.6523 32.6743 10.5233C32.5771 10.3862 32.4475 10.2814 32.2854 10.2088C32.1315 10.1362 31.9573 10.0919 31.7629 10.0758C31.5684 10.0516 31.3821 10.0395 31.2039 10.0395H30.2317V12.0713Z" fill="black"/>
<path d="M43.3448 13.5306C43.3448 14.0386 43.2678 14.5062 43.1139 14.9336C42.96 15.3609 42.7291 15.7318 42.4212 16.0462C42.1215 16.3607 41.7447 16.6066 41.291 16.784C40.8374 16.9613 40.3148 17.05 39.7234 17.05C39.1239 17.05 38.5973 16.9613 38.1436 16.784C37.6899 16.6066 37.3091 16.3607 37.0012 16.0462C36.7015 15.7318 36.4746 15.3609 36.3207 14.9336C36.1668 14.5062 36.0898 14.0386 36.0898 13.5306V8.44312H37.9856V13.4581C37.9856 13.7242 38.0261 13.9701 38.1071 14.1958C38.1962 14.4216 38.3178 14.6191 38.4717 14.7884C38.6256 14.9497 38.8079 15.0787 39.0185 15.1754C39.2373 15.2641 39.4722 15.3085 39.7234 15.3085C39.9745 15.3085 40.2054 15.2641 40.4161 15.1754C40.6267 15.0787 40.809 14.9497 40.9629 14.7884C41.1169 14.6191 41.2343 14.4216 41.3153 14.1958C41.4045 13.9701 41.449 13.7242 41.449 13.4581V8.44312H43.3448V13.5306Z" fill="black"/>
<path d="M44.6338 8.44312H47.8298C48.2754 8.44312 48.6967 8.48341 49.0937 8.56401C49.4907 8.64461 49.835 8.78571 50.1266 8.98731C50.4264 9.18081 50.6613 9.44691 50.8315 9.78551C51.0097 10.1161 51.0988 10.5353 51.0988 11.0433C51.0988 11.5432 51.0178 11.9625 50.8558 12.3011C50.6938 12.6397 50.471 12.9098 50.1874 13.1114C49.9038 13.313 49.5676 13.4581 49.1788 13.5468C48.7899 13.6274 48.3686 13.6677 47.9149 13.6677H46.5295V17.0057H44.6338V8.44312ZM46.5295 12.0713H47.7934C47.9635 12.0713 48.1255 12.0552 48.2795 12.0229C48.4415 11.9907 48.5833 11.9383 48.7048 11.8657C48.8344 11.7851 48.9357 11.6803 49.0086 11.5513C49.0896 11.4142 49.1301 11.2449 49.1301 11.0433C49.1301 10.8256 49.0775 10.6523 48.9722 10.5233C48.8749 10.3862 48.7453 10.2814 48.5833 10.2088C48.4294 10.1362 48.2552 10.0919 48.0607 10.0758C47.8663 10.0516 47.68 10.0395 47.5017 10.0395H46.5295V12.0713Z" fill="black"/>
<path d="M52.3877 8.44312H55.7174C56.1549 8.44312 56.5681 8.48741 56.957 8.57611C57.3539 8.65671 57.6983 8.79781 57.9899 8.99941C58.2897 9.19291 58.5246 9.45902 58.6948 9.79762C58.873 10.1282 58.9621 10.5434 58.9621 11.0433C58.9621 11.648 58.8041 12.164 58.4882 12.5913C58.1722 13.0106 57.7104 13.2767 57.1028 13.3896L59.2902 17.0057H57.0177L55.2192 13.5831H54.2834V17.0057H52.3877V8.44312ZM54.2834 11.9866H55.4015C55.5716 11.9866 55.7498 11.9826 55.9362 11.9745C56.1306 11.9584 56.3048 11.9221 56.4587 11.8657C56.6127 11.8012 56.7382 11.7044 56.8354 11.5754C56.9408 11.4464 56.9934 11.265 56.9934 11.0312C56.9934 10.8135 56.9489 10.6402 56.8598 10.5112C56.7706 10.3822 56.6572 10.2854 56.5195 10.2209C56.3818 10.1483 56.2238 10.1 56.0455 10.0758C55.8673 10.0516 55.6931 10.0395 55.523 10.0395H54.2834V11.9866Z" fill="black"/>
<path d="M60.5791 8.44312H62.4749V17.0057H60.5791V8.44312Z" fill="black"/>
<path d="M63.7637 8.44312H66.6317L68.6125 14.0305H68.6369L70.6298 8.44312H73.4857V17.0057H71.5899V10.4386H71.5656L69.3052 17.0057H67.8591L65.6838 10.4386H65.6595V17.0057H63.7637V8.44312Z" fill="black"/>
<path d="M74.7744 8.44312H80.8384V10.1846H76.6702V11.781H80.8384V13.5226H76.6702V15.2641H80.8384V17.0057H74.7744V8.44312Z" fill="black"/>
<path d="M74.7744 8.44312H80.8384V10.1846H76.6702V11.781H80.8384V13.5226H76.6702V15.2641H80.8384V17.0057H74.7744V8.44312Z" fill="black"/>
</svg>
