<svg width="650" height="148" viewBox="0 0 650 148" fill="none" xmlns="http://www.w3.org/2000/svg">
<path d="M0 1.59845C5.59506 1.2437 11.1872 1.00118 16.791 0.833929C18.6934 0.764196 20.5951 0.669392 22.495 0.548508C37.8187 -0.401606 37.8187 -0.401606 41.9514 2.87958C44.6741 6.1609 46.2861 9.8585 47.7624 13.8278C48.5654 15.9363 49.623 17.8286 50.766 19.771C51.4489 21.037 52.1287 22.3047 52.8058 23.5738C53.2322 24.3708 53.6586 25.1679 54.0979 25.9891C55.7401 29.0617 57.3818 32.1346 59.0166 35.2111C61.6129 40.0951 64.2691 44.919 67.1504 49.6423C71.328 56.6245 75.0015 63.9203 78.8188 71.1041C81.4137 75.9854 84.0636 80.8096 86.9506 85.526C88.0809 87.4215 89.13 89.3489 90.1727 91.2938C91.6558 94.0495 93.2388 96.6882 94.9457 99.3113C101.426 109.544 101.426 109.544 100.893 114.334C99.7776 116.539 98.5501 118.461 97.0381 120.414C95.6345 122.337 94.5621 124.404 93.4445 126.503C89.6694 133.587 85.5164 140.473 81.409 147.368C78.4175 144.8 76.9577 141.807 75.2208 138.349C72.437 132.935 69.5325 127.61 66.5115 122.325C63.2154 116.548 59.9935 110.738 56.8396 104.882C53.7435 99.1354 50.5853 93.4305 47.3511 87.76C43.495 80.9969 39.7833 74.1645 36.1081 67.3019C32.9162 61.3574 29.6211 55.4786 26.2788 49.6174C22.9826 43.8232 19.7968 37.9733 16.63 32.1078C11.5617 22.7231 6.37936 13.4076 1.02563 4.18227C0 2.33096 0 2.33096 0 1.59845Z" fill="#074854"/>
<path d="M558.862 36.7589C559.104 35.792 559.346 34.8251 559.595 33.8289C563.71 33.8289 567.824 33.8289 572.063 33.8289C573.248 36.1945 572.918 38.7845 572.926 41.3841C572.931 42.0144 572.936 42.6447 572.941 43.2941C572.956 45.3877 572.964 47.4813 572.971 49.575C572.974 50.2909 572.977 51.0069 572.98 51.7445C572.996 55.5391 573.006 59.3337 573.013 63.1284C573.021 67.0347 573.046 70.9407 573.076 74.8469C573.095 77.8603 573.101 80.8736 573.104 83.8871C573.107 85.3259 573.116 86.7647 573.129 88.2035C573.222 98.6662 572.544 107.534 565.463 115.87C555.963 125.061 545.342 125.8 532.785 125.644C524.125 125.346 517.121 122.058 511.161 115.753C509.917 114.349 508.706 112.93 507.523 111.475C508.613 108.552 510.189 107.587 512.886 106.118C513.579 105.729 514.272 105.339 514.986 104.937C517.333 104.045 518.38 104.052 520.724 104.882C521.254 105.426 521.783 105.97 522.329 106.531C527.11 111.2 531.81 112.571 538.372 112.62C543.279 112.548 547.35 112.04 551.528 109.277C552.208 108.885 552.889 108.492 553.59 108.087C556.915 104.482 558.354 99.4421 558.862 94.6272C558.09 94.9983 558.09 94.9983 557.303 95.3769C548.361 99.5757 539.883 101.594 530.075 98.5645C520.08 94.7594 512.978 88.9058 508.397 79.1673C505.216 71.4501 504.491 61.8096 507.451 53.8213C512.708 42.8538 520.178 37.334 531.267 32.8217C540.702 31.1969 550.265 32.5656 558.862 36.7589Z" fill="#094A56"/>
<path d="M294.099 36.7589C294.583 35.792 295.067 34.8251 295.566 33.8289C297.491 33.7895 299.416 33.7603 301.342 33.7373C301.889 33.725 302.436 33.7128 303 33.7001C304.434 33.6872 305.869 33.7533 307.301 33.8289C309.158 35.6835 308.943 36.8434 308.958 39.3729C308.954 39.9418 308.95 40.5108 308.946 41.0969C308.947 41.6961 308.948 42.2953 308.95 42.9126C308.953 44.8989 308.945 46.8849 308.937 48.8711C308.936 50.2468 308.935 51.6225 308.936 52.9982C308.934 55.8831 308.928 58.768 308.918 61.653C308.906 65.3596 308.903 69.066 308.904 72.7726C308.904 75.6135 308.9 78.4544 308.894 81.2953C308.892 82.6625 308.89 84.0297 308.89 85.3968C308.888 87.3034 308.882 89.2099 308.874 91.1165C308.874 91.6869 308.875 92.2574 308.875 92.8451C308.851 96.7409 308.851 96.7409 308.034 97.5573C305.84 97.6695 303.674 97.727 301.479 97.7404C300.865 97.7555 300.251 97.7706 299.618 97.7862C299.031 97.79 298.443 97.7937 297.838 97.7976C297.297 97.8045 296.756 97.8113 296.199 97.8184C295.748 97.7322 295.297 97.646 294.833 97.5573C294.349 96.8321 293.865 96.1069 293.366 95.3597C292.712 95.6156 292.057 95.8715 291.383 96.1352C290.525 96.4685 289.666 96.8018 288.782 97.1452C287.931 97.4767 287.08 97.8081 286.204 98.1496C277.208 101.459 268.205 99.9841 259.629 96.0923C251.288 91.2389 246.221 85.2406 242.76 76.3145C242.443 75.4986 242.125 74.6828 241.798 73.8423C240.031 64.5374 241.657 55.7346 246.631 47.6979C258.269 31.2444 276.527 29.3501 294.099 36.7589Z" fill="#0B4B57"/>
<path d="M481.853 36.759C482.093 36.2803 482.334 35.8015 482.581 35.3083C484.054 33.8289 484.054 33.8289 486.81 33.5171C487.877 33.5297 488.945 33.5579 490.013 33.6C490.828 33.6107 490.828 33.6107 491.66 33.6215C495.665 33.7056 495.665 33.7056 496.522 34.5615C496.591 36.523 496.614 38.4657 496.605 40.4274C496.605 41.042 496.605 41.6565 496.605 42.2897C496.605 44.3309 496.599 46.3721 496.593 48.4133C496.592 49.8247 496.591 51.236 496.59 52.6474C496.587 56.3697 496.58 60.092 496.572 63.8143C496.564 67.6095 496.561 71.4048 496.557 75.2C496.55 82.6525 496.537 90.1049 496.522 97.5573C494.351 97.6165 492.183 97.6602 490.013 97.6947C489.395 97.7131 488.778 97.7315 488.142 97.7505C487.551 97.7576 486.96 97.7647 486.351 97.7719C485.806 97.7835 485.26 97.795 484.698 97.8068C484.244 97.7245 483.789 97.6422 483.32 97.5573C482.836 96.8322 482.352 96.107 481.853 95.3598C481.208 95.6157 480.562 95.8716 479.897 96.1352C479.045 96.4686 478.193 96.8019 477.315 97.1453C476.473 97.4767 475.631 97.8082 474.763 98.1496C466.377 101.144 457.433 100.201 449.288 96.8277C441.206 92.7277 434.411 85.8662 431.385 77.276C428.46 67.8736 428.963 58.7137 433.448 49.9442C434.746 47.8064 436.175 45.9403 437.848 44.0841C438.249 43.6337 438.65 43.1833 439.063 42.7192C450.714 30.3687 467.322 29.5022 481.853 36.759Z" fill="#084A56"/>
<path d="M55.7395 1.59851C90.8334 1.59851 125.927 1.59851 162.085 1.59851C154.952 14.9551 147.772 28.2803 140.384 41.4974C138.293 45.2416 136.208 48.9893 134.123 52.7369C133.66 53.5695 133.197 54.4021 132.719 55.2599C128.968 62.004 125.234 68.7577 121.505 75.5141C117.445 82.8704 113.371 90.2186 109.279 97.5574C109.037 97.5574 108.795 97.5574 108.545 97.5574C108.569 96.7785 108.592 95.9996 108.616 95.1971C108.828 87.8268 108.961 80.4585 109.018 73.0853C109.051 69.2947 109.11 65.5086 109.232 61.7198C110.525 46.1254 110.525 46.1254 106.393 31.6188C103.04 28.4246 99.3343 26.8351 94.9192 25.5914C92.2774 24.7692 90.2335 23.4283 87.9181 21.9257C87.0519 21.4026 86.184 20.8825 85.3139 20.3662C80.1668 17.2621 75.0552 14.099 69.939 10.9445C68.7685 10.2232 68.7685 10.2232 67.5744 9.4873C66.8203 9.02238 66.0662 8.55745 65.2893 8.07844C62.5509 6.40704 59.7885 4.77819 57.0167 3.16278C56.5952 2.8883 56.1738 2.61382 55.7395 2.33102C55.7395 2.08929 55.7395 1.84756 55.7395 1.59851Z" fill="#E35829"/>
<path d="M635.412 38.1324C636.311 38.8798 637.198 39.6428 638.071 40.4215C638.513 40.7879 638.955 41.1543 639.411 41.5317C644.677 46.242 648.651 53.8845 649.185 60.9715C649.215 62.533 649.201 64.0861 649.163 65.6474C649.157 66.1832 649.15 66.7191 649.143 67.2712C649.126 68.5765 649.1 69.8818 649.072 71.187C646.961 72.2408 645.151 72.0069 642.793 72.0026C642.299 72.0027 641.805 72.0028 641.297 72.003C639.662 72.0024 638.027 71.9967 636.392 71.991C635.259 71.9896 634.127 71.9886 632.994 71.9879C630.011 71.9851 627.028 71.9779 624.045 71.9698C621.002 71.9623 617.959 71.9589 614.916 71.9552C608.944 71.9474 602.972 71.9349 596.999 71.9195C597.458 72.9763 597.92 74.0319 598.383 75.087C598.64 75.675 598.897 76.263 599.161 76.8687C601.187 81.183 603.864 83.0391 608.001 85.1047C614.289 87.231 622.634 86.5122 628.556 83.7569C630.167 82.8646 630.167 82.8646 632.02 81.2132C633.67 79.9771 633.67 79.9771 635.687 79.8855C639.075 81.0567 641.786 83.0105 644.671 85.1047C644.189 88.9587 642.723 90.2671 639.801 92.6472C631.569 98.5821 621.707 100.658 611.668 99.7549C602.538 98.2497 593.836 94.0204 588.198 86.5697C582.184 76.83 580.34 65.7836 582.97 54.5367C586.456 45.7116 592.698 39.2136 601.219 35.0364C612.576 30.3372 625.25 30.9131 635.412 38.1324Z" fill="#0A4B57"/>
<path d="M369.366 36.4384C374.355 39.9378 377.518 44.8688 379.175 50.6766C379.352 52.9849 379.352 52.9849 379.342 55.4791C379.342 56.4173 379.342 57.3556 379.341 58.3222C379.334 59.3352 379.326 60.3481 379.319 61.361C379.316 62.4057 379.314 63.4505 379.312 64.4953C379.307 67.2338 379.292 69.9721 379.276 72.7105C379.261 75.5094 379.254 78.3083 379.247 81.1073C379.231 86.5906 379.206 92.0739 379.175 97.5573C376.99 97.5769 374.805 97.5915 372.62 97.603C371.997 97.6092 371.373 97.6153 370.731 97.6216C370.138 97.624 369.545 97.6264 368.933 97.6288C368.384 97.6326 367.835 97.6365 367.269 97.6404C365.974 97.5573 365.974 97.5573 365.24 96.8248C365.169 95.5296 365.149 94.2316 365.148 92.9345C365.145 92.1029 365.142 91.2713 365.14 90.4145C365.139 89.5073 365.138 88.6002 365.137 87.6655C365.124 85.7584 365.109 83.8513 365.094 81.9442C365.072 78.927 365.055 75.9101 365.057 72.8928C365.057 69.9881 365.029 67.084 365 64.1794C365.005 63.2826 365.01 62.3858 365.015 61.4619C364.942 56.2813 364.464 52.3901 360.84 48.4791C356.116 45.3336 350.025 45.5173 344.57 46.5992C341.044 47.8621 338.65 50.5572 336.637 53.6066C335.397 56.2667 334.98 58.3782 334.948 61.3044C334.936 62.0937 334.924 62.883 334.911 63.6962C334.905 64.5403 334.899 65.3843 334.893 66.2539C334.88 67.125 334.868 67.996 334.855 68.8935C334.816 71.6723 334.786 74.4511 334.758 77.2301C334.726 80.0195 334.692 82.8088 334.653 85.5981C334.63 87.3336 334.61 89.0692 334.594 90.8048C334.584 91.5849 334.575 92.3649 334.564 93.1686C334.557 93.8587 334.55 94.5487 334.543 95.2596C334.437 96.8248 334.437 96.8248 333.704 97.5573C332.719 97.6205 331.731 97.6357 330.744 97.6288C330.151 97.6264 329.558 97.6241 328.946 97.6216C328.323 97.6155 327.699 97.6094 327.057 97.603C326.431 97.5997 325.804 97.5964 325.159 97.593C323.607 97.5844 322.054 97.5712 320.502 97.5573C320.485 89.3563 320.472 81.1553 320.464 72.9543C320.46 69.1466 320.455 65.339 320.447 61.5314C320.439 57.86 320.434 54.1887 320.433 50.5173C320.431 49.1133 320.429 47.7094 320.425 46.3054C320.419 44.346 320.419 42.3867 320.419 40.4274C320.416 39.8409 320.414 39.2545 320.411 38.6503C320.418 34.6449 320.418 34.6449 321.236 33.8289C323.185 33.7361 325.107 33.6932 327.057 33.6915C327.873 33.6781 327.873 33.6781 328.706 33.6643C330.128 33.6605 331.55 33.7396 332.97 33.8289C334.996 35.8522 334.861 37.6431 335.17 40.4215C335.509 40.0853 335.847 39.7492 336.196 39.4028C345.685 30.4876 358.268 29.8736 369.366 36.4384Z" fill="#094A56"/>
<path d="M176.753 33.8289C178.908 33.7301 181.059 33.6575 183.216 33.6C184.133 33.5539 184.133 33.5539 185.068 33.507C185.657 33.4952 186.245 33.4834 186.852 33.4712C187.393 33.452 187.935 33.4328 188.493 33.4131C189.954 33.8289 189.954 33.8289 191.038 35.4171C192.165 37.5102 193.038 39.5714 193.874 41.7956C194.194 42.6436 194.515 43.4915 194.845 44.3652C195.188 45.2825 195.53 46.1998 195.873 47.1171C196.23 48.0628 196.586 49.0083 196.944 49.9537C197.88 52.433 198.812 54.9137 199.742 57.3949C201.237 61.3768 202.735 65.357 204.237 69.336C204.761 70.7268 205.282 72.1185 205.803 73.5104C206.119 74.3491 206.435 75.1878 206.76 76.0519C207.038 76.794 207.317 77.5361 207.604 78.3007C208.141 79.9234 208.141 79.9234 209.023 80.7095C211.387 74.4912 213.75 68.2721 216.11 62.052C216.684 60.5382 217.259 59.0245 217.834 57.511C219.496 53.1336 221.149 48.7553 222.68 44.3301C222.88 43.7548 223.079 43.1795 223.285 42.5868C223.668 41.4766 224.048 40.365 224.423 39.2519C225.731 35.4546 225.731 35.4546 227.358 33.8289C228.737 33.6626 228.737 33.6626 230.389 33.6858C231.276 33.6929 231.276 33.6929 232.18 33.7001C233.106 33.7185 233.106 33.7185 234.051 33.7373C234.985 33.7472 234.985 33.7472 235.939 33.7573C237.479 33.7746 239.02 33.8009 240.56 33.8289C241.761 37.3885 240.6 39.9343 239.21 43.2285C238.981 43.7948 238.751 44.3611 238.514 44.9446C237.753 46.8132 236.979 48.6761 236.205 50.5393C235.674 51.8371 235.144 53.1353 234.615 54.4339C233.505 57.1555 232.391 59.8752 231.275 62.5939C229.557 66.7854 227.869 70.9886 226.189 75.1957C225.92 75.8702 225.651 76.5447 225.374 77.2396C224.843 78.5697 224.312 79.8998 223.782 81.23C222.54 84.3441 221.296 87.4573 220.05 90.5698C219.834 91.1102 219.619 91.6506 219.396 92.2073C217.908 95.9249 217.908 95.9249 217.091 97.5573C211.524 97.5573 205.957 97.5573 200.222 97.5573C197.607 91.0365 194.993 84.5155 192.379 77.9941C191.166 74.965 189.951 71.936 188.737 68.9073C187.562 65.977 186.387 63.0465 185.213 60.1158C184.768 59.0053 184.323 57.8948 183.877 56.7844C182.852 54.2286 181.829 51.6717 180.814 49.1117C180.072 47.2393 179.314 45.3742 178.544 43.5127C178.201 42.6651 177.858 41.8175 177.504 40.9442C177.199 40.204 176.894 39.4638 176.579 38.7011C175.998 36.6836 176.014 35.7625 176.753 33.8289Z" fill="#0A4A56"/>
<path d="M394.577 18.3489C395.167 18.348 395.757 18.347 396.365 18.3461C396.985 18.3489 397.605 18.3517 398.244 18.3547C399.174 18.3504 399.174 18.3504 400.123 18.3461C400.713 18.347 401.303 18.348 401.911 18.3489C402.456 18.3498 403 18.3506 403.561 18.3514C404.845 18.4462 404.845 18.4462 405.578 19.1787C405.642 20.2692 405.657 21.3627 405.65 22.455C405.648 23.048 405.646 23.6411 405.644 24.2521C405.638 25.0103 405.631 25.7685 405.624 26.5496C405.609 28.9518 405.594 31.354 405.578 33.8289C414.533 33.8289 423.488 33.8289 432.715 33.8289C428.592 37.9469 428.592 37.9469 426.111 39.7005C425.572 40.0851 425.032 40.4697 424.477 40.8659C423.913 41.2632 423.349 41.6604 422.768 42.0697C421.59 42.9073 420.412 43.7457 419.235 44.5848C418.66 44.9945 418.085 45.4042 417.493 45.8263C414.497 47.9872 411.572 50.241 408.649 52.4994C407.045 53.6067 407.045 53.6067 405.578 53.6067C405.593 57.4001 405.63 61.1922 405.69 64.9851C405.707 66.2746 405.718 67.5641 405.722 68.8537C405.729 70.7108 405.759 72.5664 405.793 74.4232C405.79 74.9971 405.787 75.571 405.784 76.1624C405.867 79.2557 406.058 80.3945 408.071 82.8962C411.293 85.3892 413.872 85.1095 417.845 85.0197C421.726 85.0029 424.406 85.03 427.478 87.574C431.395 92.7981 431.395 92.7981 431.016 95.6202C430.85 96.0177 430.685 96.4152 430.514 96.8248C426.007 98.4053 421.836 98.5341 417.084 98.5187C416.364 98.5305 415.644 98.5424 414.902 98.5545C407.407 98.5595 400.777 97.094 395.31 91.6972C391.503 86.7742 390.688 81.1739 390.732 75.156C390.73 74.5492 390.729 73.9423 390.728 73.3171C390.725 71.327 390.733 69.3371 390.741 67.347C390.742 65.9601 390.742 64.5732 390.742 63.1864C390.743 60.2888 390.749 57.3913 390.759 54.4937C390.772 50.7717 390.774 47.0497 390.774 43.3276C390.774 40.4685 390.778 37.6094 390.783 34.7503C390.786 33.377 390.787 32.0037 390.788 30.6304C390.789 28.7189 390.796 26.8075 390.803 24.8961C390.803 24.3246 390.803 23.7531 390.802 23.1642C390.832 18.3546 390.832 18.3546 394.577 18.3489Z" fill="#0C4D58"/>
<path d="M475.252 48.4791C478.434 50.7026 481.086 52.9013 482.587 56.5367C482.956 59.6403 482.926 62.7531 482.953 65.8762C482.984 66.7223 483.014 67.5683 483.045 68.44C483.09 73.3689 482.722 76.5722 479.373 80.3154C474.501 84.9408 469.312 86.4502 462.679 86.308C456.9 85.9481 452.534 83.9937 448.575 79.7939C444.432 74.3406 442.933 69.2246 443.716 62.3968C444.659 56.818 447.595 52.9321 451.783 49.2116C459.325 44.2669 467.288 44.4668 475.252 48.4791Z" fill="#FCFDFD"/>
<path d="M552.911 49.3346C556.1 51.8135 558.557 54.4844 559.155 58.5143C559.283 60.8835 559.298 63.2291 559.274 65.6015C559.3 66.8083 559.3 66.8083 559.327 68.0394C559.318 73.1726 558.714 76.8329 555.195 80.7095C553.335 82.2175 553.335 82.2175 551.482 83.2275C550.868 83.5741 550.255 83.9206 549.622 84.2777C544.466 86.6978 537.962 86.7898 532.536 85.2248C527.087 82.7335 522.971 78.8205 520.77 73.2013C519.058 66.9538 519.181 60.9951 522.426 55.3092C530.042 44.7833 541.774 42.4485 552.911 49.3346Z" fill="#FCFDFD"/>
<path d="M286.765 48.4791C289.731 50.5952 292.076 52.7732 294.099 55.8042C294.445 59.0436 294.371 62.2999 294.374 65.5557C294.392 66.4523 294.41 67.3489 294.429 68.2726C294.456 76.5002 294.456 76.5002 291.166 79.977C289.75 81.3162 289.75 81.3162 288.324 82.3577C287.623 82.8846 287.623 82.8846 286.908 83.4221C281.617 86.5439 275.859 86.3611 269.896 85.8371C267.648 85.1771 265.926 84.2633 264.029 82.9071C263.379 82.4992 262.728 82.0913 262.058 81.671C257.907 77.5254 255.843 72.5464 255.732 66.7919C255.732 61.153 256.436 56.5386 260.139 52.1245C267.955 44.6336 277.268 43.6807 286.765 48.4791Z" fill="#FDFDFD"/>
<path d="M627.94 48.296C632.448 51.8981 633.569 54.3659 634.403 60.1993C622.06 60.1993 609.717 60.1993 596.999 60.1993C597.929 54.6267 600.035 51.4778 604.351 47.9841C611.968 42.8869 620.329 44.1225 627.94 48.296Z" fill="#FBFCFC"/>
</svg>
